<mxfile host="app.diagrams.net" modified="2023-12-05T00:03:44.951Z" agent="Mozilla/5.0 (Macintosh; Intel Mac OS X 10_15_7) AppleWebKit/537.36 (KHTML, like Gecko) Chrome/119.0.0.0 Safari/537.36" etag="UiA_vI1SbF7IAdwJa4cP" version="21.7.2" type="github" pages="2">
  <diagram name="Page-1" id="e7e014a7-5840-1c2e-5031-d8a46d1fe8dd">
    <mxGraphModel dx="2171" dy="1382" grid="1" gridSize="10" guides="1" tooltips="1" connect="1" arrows="1" fold="1" page="1" pageScale="1" pageWidth="1169" pageHeight="826" background="none" math="0" shadow="0">
      <root>
        <mxCell id="0" />
        <mxCell id="1" parent="0" />
        <mxCell id="n_CjR4kDcSBruVza5yp5-41" style="edgeStyle=orthogonalEdgeStyle;rounded=0;orthogonalLoop=1;jettySize=auto;html=1;" parent="1" source="n_CjR4kDcSBruVza5yp5-56" edge="1">
          <mxGeometry relative="1" as="geometry">
            <mxPoint x="300" y="420.5899999999997" as="targetPoint" />
          </mxGeometry>
        </mxCell>
        <mxCell id="n_CjR4kDcSBruVza5yp5-42" value="" style="ellipse;html=1;shape=startState;fillColor=#000000;strokeColor=none;" parent="1" vertex="1">
          <mxGeometry x="286" y="263.59000000000015" width="30" height="30" as="geometry" />
        </mxCell>
        <mxCell id="n_CjR4kDcSBruVza5yp5-43" value="" style="edgeStyle=orthogonalEdgeStyle;html=1;verticalAlign=bottom;endArrow=open;endSize=8;strokeColor=#000000;rounded=0;entryX=0.5;entryY=0;entryDx=0;entryDy=0;" parent="1" source="n_CjR4kDcSBruVza5yp5-42" target="n_CjR4kDcSBruVza5yp5-56" edge="1">
          <mxGeometry relative="1" as="geometry">
            <mxPoint x="300" y="353.59000000000015" as="targetPoint" />
            <Array as="points">
              <mxPoint x="301" y="306.30999999999995" />
              <mxPoint x="301" y="306.30999999999995" />
            </Array>
          </mxGeometry>
        </mxCell>
        <mxCell id="n_CjR4kDcSBruVza5yp5-44" style="edgeStyle=orthogonalEdgeStyle;rounded=0;orthogonalLoop=1;jettySize=auto;html=1;entryX=0.5;entryY=0;entryDx=0;entryDy=0;" parent="1" source="n_CjR4kDcSBruVza5yp5-45" target="n_CjR4kDcSBruVza5yp5-47" edge="1">
          <mxGeometry relative="1" as="geometry" />
        </mxCell>
        <mxCell id="n_CjR4kDcSBruVza5yp5-45" value="Masuk ke halaman Registrasi" style="rounded=1;whiteSpace=wrap;html=1;" parent="1" vertex="1">
          <mxGeometry x="240" y="419.9000000000001" width="120" height="60" as="geometry" />
        </mxCell>
        <mxCell id="n_CjR4kDcSBruVza5yp5-46" value="" style="edgeStyle=orthogonalEdgeStyle;rounded=0;orthogonalLoop=1;jettySize=auto;html=1;" parent="1" source="n_CjR4kDcSBruVza5yp5-47" target="n_CjR4kDcSBruVza5yp5-49" edge="1">
          <mxGeometry relative="1" as="geometry" />
        </mxCell>
        <mxCell id="n_CjR4kDcSBruVza5yp5-47" value="Mengisi form registrasi" style="rounded=1;whiteSpace=wrap;html=1;" parent="1" vertex="1">
          <mxGeometry x="240" y="509.1100000000001" width="120" height="60" as="geometry" />
        </mxCell>
        <mxCell id="n_CjR4kDcSBruVza5yp5-48" style="edgeStyle=orthogonalEdgeStyle;rounded=0;orthogonalLoop=1;jettySize=auto;html=1;exitX=1;exitY=0.5;exitDx=0;exitDy=0;" parent="1" source="n_CjR4kDcSBruVza5yp5-49" target="n_CjR4kDcSBruVza5yp5-54" edge="1">
          <mxGeometry relative="1" as="geometry">
            <mxPoint x="649" y="821.379655172414" as="targetPoint" />
          </mxGeometry>
        </mxCell>
        <mxCell id="n_CjR4kDcSBruVza5yp5-49" value="Submit data registrasi" style="rounded=1;whiteSpace=wrap;html=1;" parent="1" vertex="1">
          <mxGeometry x="240" y="596.9000000000001" width="120" height="60" as="geometry" />
        </mxCell>
        <mxCell id="n_CjR4kDcSBruVza5yp5-53" value="Sistem" style="swimlane;whiteSpace=wrap;html=1;startSize=23;" parent="1" vertex="1">
          <mxGeometry x="440" y="219.9" width="260" height="590.1" as="geometry" />
        </mxCell>
        <mxCell id="n_CjR4kDcSBruVza5yp5-54" value="Memproses data registrasi yang diinputkan" style="rounded=1;whiteSpace=wrap;html=1;" parent="n_CjR4kDcSBruVza5yp5-53" vertex="1">
          <mxGeometry x="61.98000000000047" y="376.9996551724139" width="120" height="60" as="geometry" />
        </mxCell>
        <mxCell id="n_CjR4kDcSBruVza5yp5-55" value="User" style="swimlane;whiteSpace=wrap;html=1;startSize=23;" parent="1" vertex="1">
          <mxGeometry x="160" y="219.9" width="280" height="590.1" as="geometry" />
        </mxCell>
        <mxCell id="n_CjR4kDcSBruVza5yp5-56" value="Masuk kehalaman utama (home)" style="rounded=1;whiteSpace=wrap;html=1;" parent="n_CjR4kDcSBruVza5yp5-55" vertex="1">
          <mxGeometry x="81.11999999999989" y="109.30999999999995" width="120" height="60" as="geometry" />
        </mxCell>
        <mxCell id="n_CjR4kDcSBruVza5yp5-57" value="PROSES REGISTER" style="text;html=1;strokeColor=none;fillColor=none;align=center;verticalAlign=middle;whiteSpace=wrap;rounded=0;" parent="1" vertex="1">
          <mxGeometry x="430" y="160" width="280" height="30" as="geometry" />
        </mxCell>
        <mxCell id="n_CjR4kDcSBruVza5yp5-58" value="Database" style="swimlane;whiteSpace=wrap;html=1;startSize=23;" parent="1" vertex="1">
          <mxGeometry x="700" y="219.9" width="240" height="590.1" as="geometry" />
        </mxCell>
        <mxCell id="n_CjR4kDcSBruVza5yp5-59" value="Akun berhasil ditambahkan" style="rounded=0;whiteSpace=wrap;html=1;" parent="n_CjR4kDcSBruVza5yp5-58" vertex="1">
          <mxGeometry x="60.000000000000476" y="430.0996551724139" width="120" height="60" as="geometry" />
        </mxCell>
        <mxCell id="n_CjR4kDcSBruVza5yp5-60" value="" style="ellipse;html=1;shape=endState;fillColor=#000000;strokeColor=#000000;" parent="n_CjR4kDcSBruVza5yp5-58" vertex="1">
          <mxGeometry x="106.97999999999996" y="529.3799999999999" width="30" height="30" as="geometry" />
        </mxCell>
        <mxCell id="n_CjR4kDcSBruVza5yp5-61" value="" style="edgeStyle=orthogonalEdgeStyle;rounded=0;orthogonalLoop=1;jettySize=auto;html=1;" parent="n_CjR4kDcSBruVza5yp5-58" edge="1">
          <mxGeometry relative="1" as="geometry">
            <mxPoint x="120.97999999999996" y="489.3799999999999" as="sourcePoint" />
            <mxPoint x="120.98000000000002" y="529.3799999999998" as="targetPoint" />
          </mxGeometry>
        </mxCell>
        <mxCell id="n_CjR4kDcSBruVza5yp5-62" style="edgeStyle=orthogonalEdgeStyle;rounded=0;orthogonalLoop=1;jettySize=auto;html=1;exitX=0.5;exitY=1;exitDx=0;exitDy=0;entryX=0;entryY=0.5;entryDx=0;entryDy=0;" parent="1" source="n_CjR4kDcSBruVza5yp5-54" target="n_CjR4kDcSBruVza5yp5-59" edge="1">
          <mxGeometry relative="1" as="geometry" />
        </mxCell>
        <mxCell id="n_CjR4kDcSBruVza5yp5-63" style="edgeStyle=orthogonalEdgeStyle;rounded=0;orthogonalLoop=1;jettySize=auto;html=1;exitX=-0.041;exitY=0.588;exitDx=0;exitDy=0;exitPerimeter=0;entryX=1;entryY=0.5;entryDx=0;entryDy=0;" parent="1" target="n_CjR4kDcSBruVza5yp5-79" edge="1">
          <mxGeometry relative="1" as="geometry">
            <mxPoint x="1181.0799999999995" y="364.49000000000007" as="sourcePoint" />
            <mxPoint x="1135.9998622442654" y="364.7542857142858" as="targetPoint" />
          </mxGeometry>
        </mxCell>
        <mxCell id="n_CjR4kDcSBruVza5yp5-64" value="Masuk kehalaman utama (Home)" style="rounded=1;whiteSpace=wrap;html=1;" parent="1" vertex="1">
          <mxGeometry x="1180" y="329.2100000000001" width="120" height="60" as="geometry" />
        </mxCell>
        <mxCell id="n_CjR4kDcSBruVza5yp5-65" value="" style="ellipse;html=1;shape=startState;fillColor=#000000;strokeColor=none;" parent="1" vertex="1">
          <mxGeometry x="1225" y="253.00000000000003" width="30" height="30" as="geometry" />
        </mxCell>
        <mxCell id="n_CjR4kDcSBruVza5yp5-66" value="" style="edgeStyle=orthogonalEdgeStyle;html=1;verticalAlign=bottom;endArrow=open;endSize=8;strokeColor=#000000;rounded=0;entryX=0.5;entryY=0;entryDx=0;entryDy=0;" parent="1" source="n_CjR4kDcSBruVza5yp5-65" target="n_CjR4kDcSBruVza5yp5-64" edge="1">
          <mxGeometry relative="1" as="geometry">
            <mxPoint x="1240" y="343.00000000000006" as="targetPoint" />
          </mxGeometry>
        </mxCell>
        <mxCell id="n_CjR4kDcSBruVza5yp5-67" style="edgeStyle=orthogonalEdgeStyle;rounded=0;orthogonalLoop=1;jettySize=auto;html=1;exitX=0.5;exitY=1;exitDx=0;exitDy=0;entryX=0.5;entryY=-0.048;entryDx=0;entryDy=0;entryPerimeter=0;" parent="1" source="n_CjR4kDcSBruVza5yp5-68" target="n_CjR4kDcSBruVza5yp5-70" edge="1">
          <mxGeometry relative="1" as="geometry" />
        </mxCell>
        <mxCell id="n_CjR4kDcSBruVza5yp5-68" value="Masuk ke halaman Login" style="rounded=1;whiteSpace=wrap;html=1;" parent="1" vertex="1">
          <mxGeometry x="1184" y="430.00000000000006" width="120" height="60" as="geometry" />
        </mxCell>
        <mxCell id="n_CjR4kDcSBruVza5yp5-69" style="edgeStyle=orthogonalEdgeStyle;rounded=0;orthogonalLoop=1;jettySize=auto;html=1;exitX=0.5;exitY=1;exitDx=0;exitDy=0;" parent="1" source="n_CjR4kDcSBruVza5yp5-70" edge="1">
          <mxGeometry relative="1" as="geometry">
            <Array as="points">
              <mxPoint x="1244" y="627" />
            </Array>
            <mxPoint x="1525.12" y="627.31" as="targetPoint" />
          </mxGeometry>
        </mxCell>
        <mxCell id="n_CjR4kDcSBruVza5yp5-70" value="Mengisi Email &amp;amp; password" style="rounded=1;whiteSpace=wrap;html=1;" parent="1" vertex="1">
          <mxGeometry x="1184" y="537" width="120" height="60" as="geometry" />
        </mxCell>
        <mxCell id="n_CjR4kDcSBruVza5yp5-71" style="edgeStyle=orthogonalEdgeStyle;rounded=0;orthogonalLoop=1;jettySize=auto;html=1;entryX=0.5;entryY=0;entryDx=0;entryDy=0;" parent="1" target="n_CjR4kDcSBruVza5yp5-68" edge="1">
          <mxGeometry relative="1" as="geometry">
            <mxPoint x="1244" y="390.00000000000006" as="sourcePoint" />
          </mxGeometry>
        </mxCell>
        <mxCell id="n_CjR4kDcSBruVza5yp5-72" style="edgeStyle=orthogonalEdgeStyle;rounded=0;orthogonalLoop=1;jettySize=auto;html=1;exitX=0;exitY=1;exitDx=0;exitDy=0;entryX=0.5;entryY=0;entryDx=0;entryDy=0;" parent="1" edge="1">
          <mxGeometry relative="1" as="geometry">
            <Array as="points">
              <mxPoint x="1518.12" y="715" />
            </Array>
            <mxPoint x="1573.12" y="715" as="sourcePoint" />
            <mxPoint x="1518.12" y="735" as="targetPoint" />
          </mxGeometry>
        </mxCell>
        <mxCell id="n_CjR4kDcSBruVza5yp5-73" style="edgeStyle=orthogonalEdgeStyle;rounded=0;orthogonalLoop=1;jettySize=auto;html=1;entryX=0.5;entryY=0;entryDx=0;entryDy=0;" parent="1" edge="1">
          <mxGeometry relative="1" as="geometry">
            <mxPoint x="1600.12" y="715.31" as="sourcePoint" />
            <mxPoint x="1651.12" y="735" as="targetPoint" />
            <Array as="points">
              <mxPoint x="1651.12" y="715" />
            </Array>
          </mxGeometry>
        </mxCell>
        <mxCell id="n_CjR4kDcSBruVza5yp5-74" value="Validasi&amp;nbsp;&lt;br&gt;Data" style="rhombus;whiteSpace=wrap;html=1;fillColor=#dae8fc;strokeColor=#6c8ebf;" parent="1" vertex="1">
          <mxGeometry x="1553" y="680" width="75.12" height="45" as="geometry" />
        </mxCell>
        <mxCell id="n_CjR4kDcSBruVza5yp5-75" value="" style="edgeStyle=orthogonalEdgeStyle;rounded=0;orthogonalLoop=1;jettySize=auto;html=1;" parent="1" edge="1">
          <mxGeometry relative="1" as="geometry">
            <mxPoint x="1519.0769230769229" y="757" as="sourcePoint" />
            <mxPoint x="1519.0769230769229" y="796.31" as="targetPoint" />
          </mxGeometry>
        </mxCell>
        <mxCell id="n_CjR4kDcSBruVza5yp5-76" value="Data Salah" style="text;html=1;strokeColor=none;fillColor=none;align=center;verticalAlign=middle;whiteSpace=wrap;rounded=0;" parent="1" vertex="1">
          <mxGeometry x="1478.12" y="735" width="80" height="30" as="geometry" />
        </mxCell>
        <mxCell id="n_CjR4kDcSBruVza5yp5-77" style="edgeStyle=orthogonalEdgeStyle;rounded=0;orthogonalLoop=1;jettySize=auto;html=1;exitX=0.5;exitY=1;exitDx=0;exitDy=0;entryX=0.5;entryY=0;entryDx=0;entryDy=0;" parent="1" source="n_CjR4kDcSBruVza5yp5-78" target="n_CjR4kDcSBruVza5yp5-74" edge="1">
          <mxGeometry relative="1" as="geometry" />
        </mxCell>
        <mxCell id="n_CjR4kDcSBruVza5yp5-78" value="Memverifikasi" style="whiteSpace=wrap;html=1;rounded=1;" parent="1" vertex="1">
          <mxGeometry x="1530.12" y="594.31" width="120" height="60" as="geometry" />
        </mxCell>
        <mxCell id="n_CjR4kDcSBruVza5yp5-79" value="" style="ellipse;html=1;shape=endState;fillColor=#000000;strokeColor=#000000;" parent="1" vertex="1">
          <mxGeometry x="1100" y="349.6900000000001" width="30" height="30" as="geometry" />
        </mxCell>
        <mxCell id="n_CjR4kDcSBruVza5yp5-80" value="PROSES LOGIN" style="text;html=1;strokeColor=none;fillColor=none;align=center;verticalAlign=middle;whiteSpace=wrap;rounded=0;" parent="1" vertex="1">
          <mxGeometry x="1269" y="160.00000000000003" width="280" height="30" as="geometry" />
        </mxCell>
        <mxCell id="n_CjR4kDcSBruVza5yp5-81" style="edgeStyle=orthogonalEdgeStyle;rounded=0;orthogonalLoop=1;jettySize=auto;html=1;" parent="1" target="n_CjR4kDcSBruVza5yp5-64" edge="1">
          <mxGeometry relative="1" as="geometry">
            <Array as="points">
              <mxPoint x="1720" y="749.04" />
              <mxPoint x="1720" y="359.04" />
            </Array>
            <mxPoint x="1688.12" y="749.04" as="sourcePoint" />
            <mxPoint x="1310" y="359.04" as="targetPoint" />
          </mxGeometry>
        </mxCell>
        <mxCell id="n_CjR4kDcSBruVza5yp5-82" style="edgeStyle=orthogonalEdgeStyle;rounded=0;orthogonalLoop=1;jettySize=auto;html=1;entryX=0;entryY=0.5;entryDx=0;entryDy=0;" parent="1" source="n_CjR4kDcSBruVza5yp5-83" target="n_CjR4kDcSBruVza5yp5-70" edge="1">
          <mxGeometry relative="1" as="geometry" />
        </mxCell>
        <mxCell id="n_CjR4kDcSBruVza5yp5-83" value="Menampilkan alert data salah" style="rounded=1;whiteSpace=wrap;html=1;" parent="1" vertex="1">
          <mxGeometry x="1459.12" y="798.31" width="120" height="60" as="geometry" />
        </mxCell>
        <mxCell id="n_CjR4kDcSBruVza5yp5-84" value="User" style="swimlane;whiteSpace=wrap;html=1;" parent="1" vertex="1">
          <mxGeometry x="1070" y="217.48999999999998" width="354" height="661.55" as="geometry" />
        </mxCell>
        <mxCell id="n_CjR4kDcSBruVza5yp5-85" value="Sistem" style="swimlane;whiteSpace=wrap;html=1;startSize=23;" parent="1" vertex="1">
          <mxGeometry x="1424" y="217.48999999999998" width="324" height="661.55" as="geometry" />
        </mxCell>
        <mxCell id="n_CjR4kDcSBruVza5yp5-86" value="Data Benar" style="text;html=1;strokeColor=none;fillColor=none;align=center;verticalAlign=middle;whiteSpace=wrap;rounded=0;" parent="n_CjR4kDcSBruVza5yp5-85" vertex="1">
          <mxGeometry x="188.12" y="515.0999999999999" width="80" height="30" as="geometry" />
        </mxCell>
        <mxCell id="n_CjR4kDcSBruVza5yp5-97" value="Sistem" style="swimlane;whiteSpace=wrap;html=1;startSize=23;" parent="1" vertex="1">
          <mxGeometry x="580" y="1001" width="318" height="969" as="geometry" />
        </mxCell>
        <mxCell id="n_CjR4kDcSBruVza5yp5-130" style="edgeStyle=orthogonalEdgeStyle;rounded=0;orthogonalLoop=1;jettySize=auto;html=1;exitX=0.5;exitY=1;exitDx=0;exitDy=0;entryX=0.5;entryY=0;entryDx=0;entryDy=0;" parent="n_CjR4kDcSBruVza5yp5-97" source="n_CjR4kDcSBruVza5yp5-109" edge="1">
          <mxGeometry relative="1" as="geometry">
            <mxPoint x="157.8900000000001" y="230.00000000000023" as="targetPoint" />
          </mxGeometry>
        </mxCell>
        <mxCell id="n_CjR4kDcSBruVza5yp5-109" value="&lt;font style=&quot;font-size: 11px;&quot;&gt;Validasi&amp;nbsp;&lt;br&gt;Login&lt;/font&gt;" style="rhombus;whiteSpace=wrap;html=1;fillColor=#dae8fc;strokeColor=#6c8ebf;" parent="n_CjR4kDcSBruVza5yp5-97" vertex="1">
          <mxGeometry x="120.33" y="96.00000000000003" width="75.12" height="45" as="geometry" />
        </mxCell>
        <mxCell id="n_CjR4kDcSBruVza5yp5-111" value="Menampilkan halaman dashboard admin" style="rounded=1;whiteSpace=wrap;html=1;" parent="n_CjR4kDcSBruVza5yp5-97" vertex="1">
          <mxGeometry x="34.78" y="229" width="226.22" height="34" as="geometry" />
        </mxCell>
        <mxCell id="n_CjR4kDcSBruVza5yp5-123" value="Tidak valid" style="text;html=1;align=center;verticalAlign=middle;resizable=0;points=[];autosize=1;strokeColor=none;fillColor=none;" parent="n_CjR4kDcSBruVza5yp5-97" vertex="1">
          <mxGeometry x="5" y="153" width="80" height="30" as="geometry" />
        </mxCell>
        <mxCell id="n_CjR4kDcSBruVza5yp5-125" value="Menampilkan halaman kelola data" style="rounded=1;whiteSpace=wrap;html=1;" parent="n_CjR4kDcSBruVza5yp5-97" vertex="1">
          <mxGeometry x="47.22" y="290" width="223.78" height="31" as="geometry" />
        </mxCell>
        <mxCell id="n_CjR4kDcSBruVza5yp5-133" style="edgeStyle=orthogonalEdgeStyle;rounded=0;orthogonalLoop=1;jettySize=auto;html=1;exitX=0.5;exitY=1;exitDx=0;exitDy=0;entryX=0.5;entryY=0;entryDx=0;entryDy=0;" parent="n_CjR4kDcSBruVza5yp5-97" edge="1">
          <mxGeometry relative="1" as="geometry">
            <mxPoint x="159.00000000000023" y="408" as="sourcePoint" />
            <mxPoint x="159.00000000000023" y="438" as="targetPoint" />
          </mxGeometry>
        </mxCell>
        <mxCell id="n_CjR4kDcSBruVza5yp5-129" value="Menyimpan data yang ditambah" style="rounded=1;whiteSpace=wrap;html=1;" parent="n_CjR4kDcSBruVza5yp5-97" vertex="1">
          <mxGeometry x="48.11" y="378" width="223.78" height="31" as="geometry" />
        </mxCell>
        <mxCell id="n_CjR4kDcSBruVza5yp5-132" value="Menampilkan list data" style="rounded=1;whiteSpace=wrap;html=1;" parent="n_CjR4kDcSBruVza5yp5-97" vertex="1">
          <mxGeometry x="48.110000000000014" y="438" width="223.78" height="31" as="geometry" />
        </mxCell>
        <mxCell id="n_CjR4kDcSBruVza5yp5-140" style="edgeStyle=orthogonalEdgeStyle;rounded=0;orthogonalLoop=1;jettySize=auto;html=1;exitX=0.5;exitY=1;exitDx=0;exitDy=0;entryX=0.5;entryY=0;entryDx=0;entryDy=0;" parent="n_CjR4kDcSBruVza5yp5-97" edge="1">
          <mxGeometry relative="1" as="geometry">
            <mxPoint x="159.00000000000023" y="523" as="sourcePoint" />
            <mxPoint x="159.00000000000023" y="550" as="targetPoint" />
          </mxGeometry>
        </mxCell>
        <mxCell id="n_CjR4kDcSBruVza5yp5-135" value="Menyimpan perubahan data yang dipilih" style="rounded=1;whiteSpace=wrap;html=1;" parent="n_CjR4kDcSBruVza5yp5-97" vertex="1">
          <mxGeometry x="48.110000000000014" y="493" width="223.78" height="31" as="geometry" />
        </mxCell>
        <mxCell id="n_CjR4kDcSBruVza5yp5-137" value="Menampilkan list data" style="rounded=1;whiteSpace=wrap;html=1;" parent="n_CjR4kDcSBruVza5yp5-97" vertex="1">
          <mxGeometry x="48.110000000000014" y="550" width="223.78" height="31" as="geometry" />
        </mxCell>
        <mxCell id="n_CjR4kDcSBruVza5yp5-144" style="edgeStyle=orthogonalEdgeStyle;rounded=0;orthogonalLoop=1;jettySize=auto;html=1;exitX=0.5;exitY=1;exitDx=0;exitDy=0;entryX=0.5;entryY=0;entryDx=0;entryDy=0;" parent="n_CjR4kDcSBruVza5yp5-97" source="n_CjR4kDcSBruVza5yp5-141" target="n_CjR4kDcSBruVza5yp5-143" edge="1">
          <mxGeometry relative="1" as="geometry" />
        </mxCell>
        <mxCell id="n_CjR4kDcSBruVza5yp5-141" value="Menghapus data terpilih" style="rounded=1;whiteSpace=wrap;html=1;" parent="n_CjR4kDcSBruVza5yp5-97" vertex="1">
          <mxGeometry x="48.110000000000014" y="606" width="223.78" height="31" as="geometry" />
        </mxCell>
        <mxCell id="n_CjR4kDcSBruVza5yp5-143" value="Menampilkan list data" style="rounded=1;whiteSpace=wrap;html=1;" parent="n_CjR4kDcSBruVza5yp5-97" vertex="1">
          <mxGeometry x="47" y="666" width="223.78" height="31" as="geometry" />
        </mxCell>
        <mxCell id="n_CjR4kDcSBruVza5yp5-151" style="edgeStyle=orthogonalEdgeStyle;rounded=0;orthogonalLoop=1;jettySize=auto;html=1;exitX=0.5;exitY=1;exitDx=0;exitDy=0;" parent="n_CjR4kDcSBruVza5yp5-97" target="n_CjR4kDcSBruVza5yp5-150" edge="1">
          <mxGeometry relative="1" as="geometry">
            <mxPoint x="159.00000000000023" y="761" as="sourcePoint" />
            <mxPoint x="158.9000000000001" y="798" as="targetPoint" />
          </mxGeometry>
        </mxCell>
        <mxCell id="n_CjR4kDcSBruVza5yp5-146" value="Menampilkan hasil cetak laporan data" style="rounded=1;whiteSpace=wrap;html=1;" parent="n_CjR4kDcSBruVza5yp5-97" vertex="1">
          <mxGeometry x="48.110000000000014" y="730" width="223.78" height="31" as="geometry" />
        </mxCell>
        <mxCell id="n_CjR4kDcSBruVza5yp5-150" value="" style="line;strokeWidth=6;html=1;perimeter=backbonePerimeter;points=[];outlineConnect=0;" parent="n_CjR4kDcSBruVza5yp5-97" vertex="1">
          <mxGeometry x="125.94" y="798" width="67.89" height="40" as="geometry" />
        </mxCell>
        <mxCell id="n_CjR4kDcSBruVza5yp5-166" style="edgeStyle=orthogonalEdgeStyle;rounded=0;orthogonalLoop=1;jettySize=auto;html=1;exitX=0.5;exitY=1;exitDx=0;exitDy=0;entryX=0.5;entryY=0;entryDx=0;entryDy=0;" parent="n_CjR4kDcSBruVza5yp5-97" source="n_CjR4kDcSBruVza5yp5-152" target="n_CjR4kDcSBruVza5yp5-154" edge="1">
          <mxGeometry relative="1" as="geometry" />
        </mxCell>
        <mxCell id="n_CjR4kDcSBruVza5yp5-152" value="Logout" style="rounded=1;whiteSpace=wrap;html=1;" parent="n_CjR4kDcSBruVza5yp5-97" vertex="1">
          <mxGeometry x="115.67000000000007" y="858" width="84.44" height="24.69" as="geometry" />
        </mxCell>
        <mxCell id="n_CjR4kDcSBruVza5yp5-154" value="" style="ellipse;html=1;shape=endState;fillColor=#000000;strokeColor=#000000;" parent="n_CjR4kDcSBruVza5yp5-97" vertex="1">
          <mxGeometry x="142.89" y="919" width="30" height="30" as="geometry" />
        </mxCell>
        <mxCell id="n_CjR4kDcSBruVza5yp5-99" value="Admin" style="swimlane;whiteSpace=wrap;html=1;startSize=23;" parent="1" vertex="1">
          <mxGeometry x="280" y="1000.9" width="300" height="969.1" as="geometry" />
        </mxCell>
        <mxCell id="n_CjR4kDcSBruVza5yp5-118" style="edgeStyle=orthogonalEdgeStyle;rounded=0;orthogonalLoop=1;jettySize=auto;html=1;exitX=1;exitY=0.5;exitDx=0;exitDy=0;" parent="n_CjR4kDcSBruVza5yp5-99" source="n_CjR4kDcSBruVza5yp5-100" edge="1">
          <mxGeometry relative="1" as="geometry">
            <mxPoint x="420" y="119.10000000000002" as="targetPoint" />
          </mxGeometry>
        </mxCell>
        <mxCell id="n_CjR4kDcSBruVza5yp5-100" value="Login" style="rounded=1;whiteSpace=wrap;html=1;" parent="n_CjR4kDcSBruVza5yp5-99" vertex="1">
          <mxGeometry x="105.56" y="106.31" width="84.44" height="24.69" as="geometry" />
        </mxCell>
        <mxCell id="n_CjR4kDcSBruVza5yp5-113" value="&lt;span style=&quot;font-size: 11px;&quot;&gt;Pilih &lt;br&gt;menu&lt;/span&gt;" style="rhombus;whiteSpace=wrap;html=1;fillColor=#dae8fc;strokeColor=#6c8ebf;" parent="n_CjR4kDcSBruVza5yp5-99" vertex="1">
          <mxGeometry x="116.22" y="225.10000000000002" width="67.56" height="40.9" as="geometry" />
        </mxCell>
        <mxCell id="n_CjR4kDcSBruVza5yp5-114" value="Menambahkan data baru" style="rounded=1;whiteSpace=wrap;html=1;" parent="n_CjR4kDcSBruVza5yp5-99" vertex="1">
          <mxGeometry x="61.55" y="342.67999999999995" width="176.89" height="30.42" as="geometry" />
        </mxCell>
        <mxCell id="n_CjR4kDcSBruVza5yp5-115" value="Mengubah data&amp;nbsp;" style="rounded=1;whiteSpace=wrap;html=1;" parent="n_CjR4kDcSBruVza5yp5-99" vertex="1">
          <mxGeometry x="61.55" y="438.1" width="176.89" height="30.9" as="geometry" />
        </mxCell>
        <mxCell id="n_CjR4kDcSBruVza5yp5-116" value="Menghapus data&amp;nbsp;" style="rounded=1;whiteSpace=wrap;html=1;" parent="n_CjR4kDcSBruVza5yp5-99" vertex="1">
          <mxGeometry x="59.33" y="550.1" width="176.89" height="30.9" as="geometry" />
        </mxCell>
        <mxCell id="n_CjR4kDcSBruVza5yp5-117" value="Mencetak laporan data" style="rounded=1;whiteSpace=wrap;html=1;" parent="n_CjR4kDcSBruVza5yp5-99" vertex="1">
          <mxGeometry x="59.33" y="665.1" width="176.89" height="30.9" as="geometry" />
        </mxCell>
        <mxCell id="n_CjR4kDcSBruVza5yp5-127" value="Ya" style="text;html=1;align=center;verticalAlign=middle;resizable=0;points=[];autosize=1;strokeColor=none;fillColor=none;" parent="n_CjR4kDcSBruVza5yp5-99" vertex="1">
          <mxGeometry x="203.89" y="279.1" width="40" height="30" as="geometry" />
        </mxCell>
        <mxCell id="n_CjR4kDcSBruVza5yp5-158" value="Tidak" style="text;html=1;align=center;verticalAlign=middle;resizable=0;points=[];autosize=1;strokeColor=none;fillColor=none;" parent="n_CjR4kDcSBruVza5yp5-99" vertex="1">
          <mxGeometry x="54.329999999999984" y="244.10000000000002" width="50" height="30" as="geometry" />
        </mxCell>
        <mxCell id="n_CjR4kDcSBruVza5yp5-159" value="" style="edgeStyle=orthogonalEdgeStyle;rounded=0;orthogonalLoop=1;jettySize=auto;html=1;exitX=0.437;exitY=0.815;exitDx=0;exitDy=0;exitPerimeter=0;" parent="n_CjR4kDcSBruVza5yp5-99" source="n_CjR4kDcSBruVza5yp5-89" target="n_CjR4kDcSBruVza5yp5-100" edge="1">
          <mxGeometry relative="1" as="geometry">
            <Array as="points">
              <mxPoint x="148" y="74" />
            </Array>
          </mxGeometry>
        </mxCell>
        <mxCell id="n_CjR4kDcSBruVza5yp5-89" value="" style="ellipse;html=1;shape=startState;fillColor=#000000;strokeColor=none;" parent="n_CjR4kDcSBruVza5yp5-99" vertex="1">
          <mxGeometry x="132.77999999999997" y="49.10000000000025" width="30" height="30" as="geometry" />
        </mxCell>
        <mxCell id="n_CjR4kDcSBruVza5yp5-101" value="ADMIN" style="text;html=1;strokeColor=none;fillColor=none;align=center;verticalAlign=middle;whiteSpace=wrap;rounded=0;" parent="1" vertex="1">
          <mxGeometry x="430" y="950" width="280" height="30" as="geometry" />
        </mxCell>
        <mxCell id="n_CjR4kDcSBruVza5yp5-120" style="edgeStyle=orthogonalEdgeStyle;rounded=0;orthogonalLoop=1;jettySize=auto;html=1;entryX=0.5;entryY=1;entryDx=0;entryDy=0;" parent="1" target="n_CjR4kDcSBruVza5yp5-100" edge="1">
          <mxGeometry relative="1" as="geometry">
            <mxPoint x="740" y="1180" as="sourcePoint" />
            <mxPoint x="430" y="1150.9" as="targetPoint" />
          </mxGeometry>
        </mxCell>
        <mxCell id="n_CjR4kDcSBruVza5yp5-122" value="Valid" style="text;html=1;align=center;verticalAlign=middle;resizable=0;points=[];autosize=1;strokeColor=none;fillColor=none;" parent="1" vertex="1">
          <mxGeometry x="732" y="1189" width="50" height="30" as="geometry" />
        </mxCell>
        <mxCell id="n_CjR4kDcSBruVza5yp5-124" style="edgeStyle=orthogonalEdgeStyle;rounded=0;orthogonalLoop=1;jettySize=auto;html=1;exitX=0;exitY=0.5;exitDx=0;exitDy=0;entryX=1;entryY=0.5;entryDx=0;entryDy=0;" parent="1" source="n_CjR4kDcSBruVza5yp5-111" target="n_CjR4kDcSBruVza5yp5-113" edge="1">
          <mxGeometry relative="1" as="geometry" />
        </mxCell>
        <mxCell id="n_CjR4kDcSBruVza5yp5-126" style="edgeStyle=orthogonalEdgeStyle;rounded=0;orthogonalLoop=1;jettySize=auto;html=1;exitX=0.5;exitY=1;exitDx=0;exitDy=0;entryX=0;entryY=0.5;entryDx=0;entryDy=0;" parent="1" source="n_CjR4kDcSBruVza5yp5-113" target="n_CjR4kDcSBruVza5yp5-125" edge="1">
          <mxGeometry relative="1" as="geometry" />
        </mxCell>
        <mxCell id="n_CjR4kDcSBruVza5yp5-128" style="edgeStyle=orthogonalEdgeStyle;rounded=0;orthogonalLoop=1;jettySize=auto;html=1;exitX=0.5;exitY=1;exitDx=0;exitDy=0;entryX=1;entryY=0.5;entryDx=0;entryDy=0;" parent="1" source="n_CjR4kDcSBruVza5yp5-125" target="n_CjR4kDcSBruVza5yp5-114" edge="1">
          <mxGeometry relative="1" as="geometry" />
        </mxCell>
        <mxCell id="n_CjR4kDcSBruVza5yp5-136" style="edgeStyle=orthogonalEdgeStyle;rounded=0;orthogonalLoop=1;jettySize=auto;html=1;exitX=0.5;exitY=1;exitDx=0;exitDy=0;entryX=0;entryY=0.5;entryDx=0;entryDy=0;" parent="1" source="n_CjR4kDcSBruVza5yp5-115" target="n_CjR4kDcSBruVza5yp5-135" edge="1">
          <mxGeometry relative="1" as="geometry" />
        </mxCell>
        <mxCell id="n_CjR4kDcSBruVza5yp5-138" style="edgeStyle=orthogonalEdgeStyle;rounded=0;orthogonalLoop=1;jettySize=auto;html=1;exitX=0;exitY=0.5;exitDx=0;exitDy=0;entryX=1;entryY=0.5;entryDx=0;entryDy=0;" parent="1" source="n_CjR4kDcSBruVza5yp5-137" target="n_CjR4kDcSBruVza5yp5-116" edge="1">
          <mxGeometry relative="1" as="geometry" />
        </mxCell>
        <mxCell id="n_CjR4kDcSBruVza5yp5-139" style="edgeStyle=orthogonalEdgeStyle;rounded=0;orthogonalLoop=1;jettySize=auto;html=1;exitX=0.5;exitY=1;exitDx=0;exitDy=0;entryX=0;entryY=0.5;entryDx=0;entryDy=0;" parent="1" source="n_CjR4kDcSBruVza5yp5-114" target="n_CjR4kDcSBruVza5yp5-129" edge="1">
          <mxGeometry relative="1" as="geometry">
            <Array as="points">
              <mxPoint x="430" y="1394" />
              <mxPoint x="568" y="1394" />
            </Array>
          </mxGeometry>
        </mxCell>
        <mxCell id="n_CjR4kDcSBruVza5yp5-142" style="edgeStyle=orthogonalEdgeStyle;rounded=0;orthogonalLoop=1;jettySize=auto;html=1;exitX=0.5;exitY=1;exitDx=0;exitDy=0;entryX=0;entryY=0.5;entryDx=0;entryDy=0;" parent="1" source="n_CjR4kDcSBruVza5yp5-116" target="n_CjR4kDcSBruVza5yp5-141" edge="1">
          <mxGeometry relative="1" as="geometry" />
        </mxCell>
        <mxCell id="n_CjR4kDcSBruVza5yp5-145" style="edgeStyle=orthogonalEdgeStyle;rounded=0;orthogonalLoop=1;jettySize=auto;html=1;exitX=0;exitY=0.5;exitDx=0;exitDy=0;entryX=1;entryY=0.5;entryDx=0;entryDy=0;" parent="1" source="n_CjR4kDcSBruVza5yp5-143" target="n_CjR4kDcSBruVza5yp5-117" edge="1">
          <mxGeometry relative="1" as="geometry" />
        </mxCell>
        <mxCell id="n_CjR4kDcSBruVza5yp5-153" style="edgeStyle=orthogonalEdgeStyle;rounded=0;orthogonalLoop=1;jettySize=auto;html=1;exitX=0.5;exitY=1;exitDx=0;exitDy=0;" parent="1" edge="1">
          <mxGeometry relative="1" as="geometry">
            <mxPoint x="740.0000000000002" y="1822" as="sourcePoint" />
            <mxPoint x="739.9000000000001" y="1859" as="targetPoint" />
          </mxGeometry>
        </mxCell>
        <mxCell id="n_CjR4kDcSBruVza5yp5-156" style="edgeStyle=orthogonalEdgeStyle;rounded=0;orthogonalLoop=1;jettySize=auto;html=1;exitX=0;exitY=0.5;exitDx=0;exitDy=0;" parent="1" source="n_CjR4kDcSBruVza5yp5-113" target="n_CjR4kDcSBruVza5yp5-150" edge="1">
          <mxGeometry relative="1" as="geometry">
            <mxPoint x="391.22" y="1251.45" as="sourcePoint" />
            <mxPoint x="708" y="1805" as="targetPoint" />
            <Array as="points">
              <mxPoint x="320" y="1246" />
              <mxPoint x="320" y="1790" />
              <mxPoint x="720" y="1790" />
            </Array>
          </mxGeometry>
        </mxCell>
        <mxCell id="n_CjR4kDcSBruVza5yp5-160" style="edgeStyle=orthogonalEdgeStyle;rounded=0;orthogonalLoop=1;jettySize=auto;html=1;exitX=0;exitY=0.5;exitDx=0;exitDy=0;entryX=1;entryY=0.5;entryDx=0;entryDy=0;" parent="1" source="n_CjR4kDcSBruVza5yp5-132" target="n_CjR4kDcSBruVza5yp5-115" edge="1">
          <mxGeometry relative="1" as="geometry" />
        </mxCell>
        <mxCell id="n_CjR4kDcSBruVza5yp5-164" style="edgeStyle=orthogonalEdgeStyle;rounded=0;orthogonalLoop=1;jettySize=auto;html=1;exitX=0.5;exitY=1;exitDx=0;exitDy=0;entryX=0;entryY=0.5;entryDx=0;entryDy=0;" parent="1" source="n_CjR4kDcSBruVza5yp5-117" target="n_CjR4kDcSBruVza5yp5-146" edge="1">
          <mxGeometry relative="1" as="geometry" />
        </mxCell>
        <mxCell id="n_CjR4kDcSBruVza5yp5-167" value="User" style="swimlane;whiteSpace=wrap" parent="1" vertex="1">
          <mxGeometry x="2040" y="219.9" width="400" height="1320.1" as="geometry" />
        </mxCell>
        <mxCell id="n_CjR4kDcSBruVza5yp5-261" style="edgeStyle=orthogonalEdgeStyle;rounded=0;orthogonalLoop=1;jettySize=auto;html=1;exitX=0.5;exitY=1;exitDx=0;exitDy=0;" parent="n_CjR4kDcSBruVza5yp5-167" edge="1">
          <mxGeometry relative="1" as="geometry">
            <mxPoint x="210" y="74" as="sourcePoint" />
            <mxPoint x="210" y="107.09999999999991" as="targetPoint" />
          </mxGeometry>
        </mxCell>
        <mxCell id="n_CjR4kDcSBruVza5yp5-169" value="" style="ellipse;shape=startState;fillColor=#000000;strokeColor=none;" parent="n_CjR4kDcSBruVza5yp5-167" vertex="1">
          <mxGeometry x="195" y="47" width="30" height="30" as="geometry" />
        </mxCell>
        <mxCell id="n_CjR4kDcSBruVza5yp5-244" value="" style="edgeStyle=orthogonalEdgeStyle;rounded=0;orthogonalLoop=1;jettySize=auto;html=1;" parent="n_CjR4kDcSBruVza5yp5-167" source="n_CjR4kDcSBruVza5yp5-171" target="n_CjR4kDcSBruVza5yp5-173" edge="1">
          <mxGeometry relative="1" as="geometry" />
        </mxCell>
        <mxCell id="n_CjR4kDcSBruVza5yp5-171" value="Masuk ke halaman produk" style="verticalAlign=middle;horizontal=1;whiteSpace=wrap;rounded=1;" parent="n_CjR4kDcSBruVza5yp5-167" vertex="1">
          <mxGeometry x="150" y="110.1" width="120" height="39.9" as="geometry" />
        </mxCell>
        <mxCell id="n_CjR4kDcSBruVza5yp5-245" value="" style="edgeStyle=orthogonalEdgeStyle;rounded=0;orthogonalLoop=1;jettySize=auto;html=1;entryX=1;entryY=0.5;entryDx=0;entryDy=0;" parent="n_CjR4kDcSBruVza5yp5-167" source="n_CjR4kDcSBruVza5yp5-173" target="n_CjR4kDcSBruVza5yp5-243" edge="1">
          <mxGeometry relative="1" as="geometry" />
        </mxCell>
        <mxCell id="n_CjR4kDcSBruVza5yp5-173" value="Memilih produk " style="rounded=1;" parent="n_CjR4kDcSBruVza5yp5-167" vertex="1">
          <mxGeometry x="155" y="175.1" width="110" height="36.9" as="geometry" />
        </mxCell>
        <mxCell id="n_CjR4kDcSBruVza5yp5-258" style="edgeStyle=orthogonalEdgeStyle;rounded=0;orthogonalLoop=1;jettySize=auto;html=1;exitX=0;exitY=0.75;exitDx=0;exitDy=0;entryX=0.595;entryY=0.024;entryDx=0;entryDy=0;entryPerimeter=0;" parent="n_CjR4kDcSBruVza5yp5-167" source="n_CjR4kDcSBruVza5yp5-243" target="n_CjR4kDcSBruVza5yp5-247" edge="1">
          <mxGeometry relative="1" as="geometry" />
        </mxCell>
        <mxCell id="n_CjR4kDcSBruVza5yp5-259" style="edgeStyle=orthogonalEdgeStyle;rounded=0;orthogonalLoop=1;jettySize=auto;html=1;exitX=0;exitY=0.25;exitDx=0;exitDy=0;entryX=0.5;entryY=0;entryDx=0;entryDy=0;" parent="n_CjR4kDcSBruVza5yp5-167" source="n_CjR4kDcSBruVza5yp5-243" target="n_CjR4kDcSBruVza5yp5-246" edge="1">
          <mxGeometry relative="1" as="geometry">
            <mxPoint x="136" y="290.0999999999999" as="targetPoint" />
          </mxGeometry>
        </mxCell>
        <mxCell id="n_CjR4kDcSBruVza5yp5-243" value="" style="whiteSpace=wrap;strokeColor=#000000;fillColor=#000000;direction=north;rotation=0;" parent="n_CjR4kDcSBruVza5yp5-167" vertex="1">
          <mxGeometry x="155" y="254.1" width="110" height="5" as="geometry" />
        </mxCell>
        <mxCell id="n_CjR4kDcSBruVza5yp5-254" style="edgeStyle=orthogonalEdgeStyle;rounded=0;orthogonalLoop=1;jettySize=auto;html=1;exitX=0.5;exitY=1;exitDx=0;exitDy=0;entryX=0.5;entryY=0;entryDx=0;entryDy=0;" parent="n_CjR4kDcSBruVza5yp5-167" source="n_CjR4kDcSBruVza5yp5-246" target="n_CjR4kDcSBruVza5yp5-251" edge="1">
          <mxGeometry relative="1" as="geometry" />
        </mxCell>
        <mxCell id="n_CjR4kDcSBruVza5yp5-246" value="Minuman" style="rounded=1;" parent="n_CjR4kDcSBruVza5yp5-167" vertex="1">
          <mxGeometry x="82" y="307.0999999999999" width="100" height="30" as="geometry" />
        </mxCell>
        <mxCell id="n_CjR4kDcSBruVza5yp5-253" style="edgeStyle=orthogonalEdgeStyle;rounded=0;orthogonalLoop=1;jettySize=auto;html=1;exitX=0.5;exitY=1;exitDx=0;exitDy=0;entryX=0.5;entryY=0;entryDx=0;entryDy=0;" parent="n_CjR4kDcSBruVza5yp5-167" source="n_CjR4kDcSBruVza5yp5-247" target="n_CjR4kDcSBruVza5yp5-252" edge="1">
          <mxGeometry relative="1" as="geometry" />
        </mxCell>
        <mxCell id="n_CjR4kDcSBruVza5yp5-247" value="Makanan" style="rounded=1;" parent="n_CjR4kDcSBruVza5yp5-167" vertex="1">
          <mxGeometry x="223.34" y="308.0999999999999" width="100" height="30" as="geometry" />
        </mxCell>
        <mxCell id="n_CjR4kDcSBruVza5yp5-256" style="edgeStyle=orthogonalEdgeStyle;rounded=0;orthogonalLoop=1;jettySize=auto;html=1;exitX=0.5;exitY=1;exitDx=0;exitDy=0;entryX=1;entryY=0.25;entryDx=0;entryDy=0;" parent="n_CjR4kDcSBruVza5yp5-167" source="n_CjR4kDcSBruVza5yp5-251" target="n_CjR4kDcSBruVza5yp5-255" edge="1">
          <mxGeometry relative="1" as="geometry" />
        </mxCell>
        <mxCell id="n_CjR4kDcSBruVza5yp5-251" value="Memilih produk&#xa;minuman " style="rounded=1;" parent="n_CjR4kDcSBruVza5yp5-167" vertex="1">
          <mxGeometry x="77" y="371.1" width="110" height="36.9" as="geometry" />
        </mxCell>
        <mxCell id="n_CjR4kDcSBruVza5yp5-364" style="edgeStyle=orthogonalEdgeStyle;rounded=0;orthogonalLoop=1;jettySize=auto;html=1;exitX=0.5;exitY=1;exitDx=0;exitDy=0;entryX=0.933;entryY=0.63;entryDx=0;entryDy=0;entryPerimeter=0;" parent="n_CjR4kDcSBruVza5yp5-167" source="n_CjR4kDcSBruVza5yp5-252" target="n_CjR4kDcSBruVza5yp5-255" edge="1">
          <mxGeometry relative="1" as="geometry" />
        </mxCell>
        <mxCell id="n_CjR4kDcSBruVza5yp5-252" value="Memilih produk&#xa;makanan " style="rounded=1;" parent="n_CjR4kDcSBruVza5yp5-167" vertex="1">
          <mxGeometry x="220.3800000000001" y="371.1" width="110" height="36.9" as="geometry" />
        </mxCell>
        <mxCell id="n_CjR4kDcSBruVza5yp5-263" style="edgeStyle=orthogonalEdgeStyle;rounded=0;orthogonalLoop=1;jettySize=auto;html=1;exitX=0;exitY=0.5;exitDx=0;exitDy=0;entryX=0.5;entryY=0;entryDx=0;entryDy=0;" parent="n_CjR4kDcSBruVza5yp5-167" source="n_CjR4kDcSBruVza5yp5-255" target="n_CjR4kDcSBruVza5yp5-262" edge="1">
          <mxGeometry relative="1" as="geometry">
            <mxPoint x="210" y="491.1" as="targetPoint" />
          </mxGeometry>
        </mxCell>
        <mxCell id="n_CjR4kDcSBruVza5yp5-255" value="" style="whiteSpace=wrap;strokeColor=#000000;fillColor=#000000;direction=north;rotation=0;" parent="n_CjR4kDcSBruVza5yp5-167" vertex="1">
          <mxGeometry x="156" y="451.1" width="110" height="5" as="geometry" />
        </mxCell>
        <mxCell id="n_CjR4kDcSBruVza5yp5-328" style="edgeStyle=orthogonalEdgeStyle;rounded=0;orthogonalLoop=1;jettySize=auto;html=1;exitX=0.5;exitY=1;exitDx=0;exitDy=0;" parent="n_CjR4kDcSBruVza5yp5-167" source="n_CjR4kDcSBruVza5yp5-262" target="n_CjR4kDcSBruVza5yp5-327" edge="1">
          <mxGeometry relative="1" as="geometry" />
        </mxCell>
        <mxCell id="n_CjR4kDcSBruVza5yp5-262" value="Selesai memilih pesanan " style="rounded=1;" parent="n_CjR4kDcSBruVza5yp5-167" vertex="1">
          <mxGeometry x="136" y="497.1" width="150" height="36.9" as="geometry" />
        </mxCell>
        <mxCell id="n_CjR4kDcSBruVza5yp5-330" style="edgeStyle=orthogonalEdgeStyle;rounded=0;orthogonalLoop=1;jettySize=auto;html=1;exitX=1;exitY=0.5;exitDx=0;exitDy=0;entryX=1;entryY=0.5;entryDx=0;entryDy=0;" parent="n_CjR4kDcSBruVza5yp5-167" source="n_CjR4kDcSBruVza5yp5-323" target="n_CjR4kDcSBruVza5yp5-325" edge="1">
          <mxGeometry relative="1" as="geometry" />
        </mxCell>
        <mxCell id="n_CjR4kDcSBruVza5yp5-355" style="edgeStyle=orthogonalEdgeStyle;rounded=0;orthogonalLoop=1;jettySize=auto;html=1;exitX=0.5;exitY=1;exitDx=0;exitDy=0;entryX=0.5;entryY=0;entryDx=0;entryDy=0;" parent="n_CjR4kDcSBruVza5yp5-167" source="n_CjR4kDcSBruVza5yp5-323" target="n_CjR4kDcSBruVza5yp5-354" edge="1">
          <mxGeometry relative="1" as="geometry" />
        </mxCell>
        <mxCell id="n_CjR4kDcSBruVza5yp5-323" value="Submit form &#xa;transaksi pemesanan" style="rounded=1;" parent="n_CjR4kDcSBruVza5yp5-167" vertex="1">
          <mxGeometry x="136" y="640.1000000000001" width="150" height="36.9" as="geometry" />
        </mxCell>
        <mxCell id="n_CjR4kDcSBruVza5yp5-329" style="edgeStyle=orthogonalEdgeStyle;rounded=0;orthogonalLoop=1;jettySize=auto;html=1;exitX=0.5;exitY=1;exitDx=0;exitDy=0;entryX=0.5;entryY=0;entryDx=0;entryDy=0;" parent="n_CjR4kDcSBruVza5yp5-167" source="n_CjR4kDcSBruVza5yp5-327" target="n_CjR4kDcSBruVza5yp5-323" edge="1">
          <mxGeometry relative="1" as="geometry" />
        </mxCell>
        <mxCell id="n_CjR4kDcSBruVza5yp5-327" value="Melakukan pembayaran" style="rounded=1;" parent="n_CjR4kDcSBruVza5yp5-167" vertex="1">
          <mxGeometry x="136" y="569.1" width="150" height="36.9" as="geometry" />
        </mxCell>
        <mxCell id="n_CjR4kDcSBruVza5yp5-325" value="" style="whiteSpace=wrap;strokeColor=#000000;fillColor=#000000;direction=north;rotation=-90;" parent="n_CjR4kDcSBruVza5yp5-167" vertex="1">
          <mxGeometry x="303" y="657.05" width="50" height="5" as="geometry" />
        </mxCell>
        <mxCell id="n_CjR4kDcSBruVza5yp5-362" style="edgeStyle=orthogonalEdgeStyle;rounded=0;orthogonalLoop=1;jettySize=auto;html=1;exitX=0.5;exitY=1;exitDx=0;exitDy=0;entryX=0.5;entryY=0;entryDx=0;entryDy=0;" parent="n_CjR4kDcSBruVza5yp5-167" source="n_CjR4kDcSBruVza5yp5-354" target="n_CjR4kDcSBruVza5yp5-360" edge="1">
          <mxGeometry relative="1" as="geometry" />
        </mxCell>
        <mxCell id="n_CjR4kDcSBruVza5yp5-354" value="Melihat status pembayaran" style="rounded=1;" parent="n_CjR4kDcSBruVza5yp5-167" vertex="1">
          <mxGeometry x="136" y="740.1000000000001" width="150" height="36.9" as="geometry" />
        </mxCell>
        <mxCell id="n_CjR4kDcSBruVza5yp5-366" style="edgeStyle=orthogonalEdgeStyle;rounded=0;orthogonalLoop=1;jettySize=auto;html=1;exitX=1;exitY=0.5;exitDx=0;exitDy=0;entryX=0.824;entryY=-0.018;entryDx=0;entryDy=0;entryPerimeter=0;" parent="n_CjR4kDcSBruVza5yp5-167" source="n_CjR4kDcSBruVza5yp5-360" target="n_CjR4kDcSBruVza5yp5-365" edge="1">
          <mxGeometry relative="1" as="geometry" />
        </mxCell>
        <mxCell id="n_CjR4kDcSBruVza5yp5-367" style="edgeStyle=orthogonalEdgeStyle;rounded=0;orthogonalLoop=1;jettySize=auto;html=1;exitX=0;exitY=0.5;exitDx=0;exitDy=0;entryX=0;entryY=0.5;entryDx=0;entryDy=0;" parent="n_CjR4kDcSBruVza5yp5-167" source="n_CjR4kDcSBruVza5yp5-360" target="n_CjR4kDcSBruVza5yp5-171" edge="1">
          <mxGeometry relative="1" as="geometry">
            <Array as="points">
              <mxPoint x="40" y="824" />
              <mxPoint x="40" y="130" />
            </Array>
          </mxGeometry>
        </mxCell>
        <mxCell id="n_CjR4kDcSBruVza5yp5-360" value="" style="rhombus;fillColor=#dae8fc;strokeColor=#6c8ebf;" parent="n_CjR4kDcSBruVza5yp5-167" vertex="1">
          <mxGeometry x="183.26999999999998" y="805.1" width="55.46" height="36.9" as="geometry" />
        </mxCell>
        <mxCell id="n_CjR4kDcSBruVza5yp5-365" value="Masuk ke halaman &#xa;detail pesanan" style="rounded=1;" parent="n_CjR4kDcSBruVza5yp5-167" vertex="1">
          <mxGeometry x="135" y="991.1" width="150" height="36.9" as="geometry" />
        </mxCell>
        <mxCell id="n_CjR4kDcSBruVza5yp5-368" value="Pembayaran Ditolak" style="text;html=1;align=center;verticalAlign=middle;resizable=0;points=[];autosize=1;strokeColor=none;fillColor=none;" parent="n_CjR4kDcSBruVza5yp5-167" vertex="1">
          <mxGeometry x="37" y="816.1" width="130" height="30" as="geometry" />
        </mxCell>
        <mxCell id="n_CjR4kDcSBruVza5yp5-369" value="Pembayaran Diterima" style="text;html=1;align=center;verticalAlign=middle;resizable=0;points=[];autosize=1;strokeColor=none;fillColor=none;" parent="n_CjR4kDcSBruVza5yp5-167" vertex="1">
          <mxGeometry x="195" y="860.0999999999998" width="140" height="30" as="geometry" />
        </mxCell>
        <mxCell id="n_CjR4kDcSBruVza5yp5-375" value="" style="group" parent="n_CjR4kDcSBruVza5yp5-167" connectable="0" vertex="1">
          <mxGeometry x="186" y="1207.1" width="48" height="48" as="geometry" />
        </mxCell>
        <mxCell id="n_CjR4kDcSBruVza5yp5-376" value="" style="ellipse;whiteSpace=wrap;html=1;" parent="n_CjR4kDcSBruVza5yp5-375" vertex="1">
          <mxGeometry width="48" height="48" as="geometry" />
        </mxCell>
        <mxCell id="n_CjR4kDcSBruVza5yp5-377" value="" style="ellipse;whiteSpace=wrap;html=1;fillColor=#000000;" parent="n_CjR4kDcSBruVza5yp5-375" vertex="1">
          <mxGeometry x="6.206896551724138" y="6.206896551724138" width="35.58620689655172" height="35.58620689655172" as="geometry" />
        </mxCell>
        <mxCell id="n_CjR4kDcSBruVza5yp5-378" style="edgeStyle=orthogonalEdgeStyle;rounded=0;orthogonalLoop=1;jettySize=auto;html=1;exitX=1;exitY=0.5;exitDx=0;exitDy=0;entryX=1;entryY=0;entryDx=0;entryDy=0;" parent="n_CjR4kDcSBruVza5yp5-375" source="n_CjR4kDcSBruVza5yp5-377" target="n_CjR4kDcSBruVza5yp5-377" edge="1">
          <mxGeometry relative="1" as="geometry" />
        </mxCell>
        <mxCell id="n_CjR4kDcSBruVza5yp5-203" value="Admin" style="swimlane;whiteSpace=wrap" parent="1" vertex="1">
          <mxGeometry x="2440" y="219.9" width="370" height="1320.1" as="geometry" />
        </mxCell>
        <mxCell id="n_CjR4kDcSBruVza5yp5-335" style="edgeStyle=orthogonalEdgeStyle;rounded=0;orthogonalLoop=1;jettySize=auto;html=1;exitX=0.5;exitY=1;exitDx=0;exitDy=0;entryX=0.5;entryY=0;entryDx=0;entryDy=0;" parent="n_CjR4kDcSBruVza5yp5-203" source="n_CjR4kDcSBruVza5yp5-331" target="n_CjR4kDcSBruVza5yp5-332" edge="1">
          <mxGeometry relative="1" as="geometry" />
        </mxCell>
        <mxCell id="n_CjR4kDcSBruVza5yp5-331" value="Mengecek data pesanan" style="rounded=1;" parent="n_CjR4kDcSBruVza5yp5-203" vertex="1">
          <mxGeometry x="110" y="606.1" width="150" height="36.9" as="geometry" />
        </mxCell>
        <mxCell id="n_CjR4kDcSBruVza5yp5-349" style="edgeStyle=orthogonalEdgeStyle;rounded=0;orthogonalLoop=1;jettySize=auto;html=1;exitX=0.5;exitY=1;exitDx=0;exitDy=0;entryX=0.5;entryY=0;entryDx=0;entryDy=0;" parent="n_CjR4kDcSBruVza5yp5-203" source="n_CjR4kDcSBruVza5yp5-332" target="n_CjR4kDcSBruVza5yp5-338" edge="1">
          <mxGeometry relative="1" as="geometry" />
        </mxCell>
        <mxCell id="n_CjR4kDcSBruVza5yp5-332" value="Mengecek pembayaran" style="rounded=1;" parent="n_CjR4kDcSBruVza5yp5-203" vertex="1">
          <mxGeometry x="110" y="674.1" width="150" height="36.9" as="geometry" />
        </mxCell>
        <mxCell id="n_CjR4kDcSBruVza5yp5-351" style="edgeStyle=orthogonalEdgeStyle;rounded=0;orthogonalLoop=1;jettySize=auto;html=1;exitX=0.897;exitY=0.476;exitDx=0;exitDy=0;entryX=0.559;entryY=0.048;entryDx=0;entryDy=0;entryPerimeter=0;exitPerimeter=0;" parent="n_CjR4kDcSBruVza5yp5-203" edge="1">
          <mxGeometry relative="1" as="geometry">
            <mxPoint x="206.51761999999962" y="761.6644" as="sourcePoint" />
            <mxPoint x="267.52399999999943" y="851.1112000000002" as="targetPoint" />
          </mxGeometry>
        </mxCell>
        <mxCell id="n_CjR4kDcSBruVza5yp5-353" style="edgeStyle=orthogonalEdgeStyle;rounded=0;orthogonalLoop=1;jettySize=auto;html=1;exitX=0;exitY=0.5;exitDx=0;exitDy=0;entryX=0.391;entryY=-0.011;entryDx=0;entryDy=0;entryPerimeter=0;" parent="n_CjR4kDcSBruVza5yp5-203" source="n_CjR4kDcSBruVza5yp5-338" target="n_CjR4kDcSBruVza5yp5-343" edge="1">
          <mxGeometry relative="1" as="geometry" />
        </mxCell>
        <mxCell id="n_CjR4kDcSBruVza5yp5-338" value="" style="rhombus;fillColor=#dae8fc;strokeColor=#6c8ebf;" parent="n_CjR4kDcSBruVza5yp5-203" vertex="1">
          <mxGeometry x="156.77" y="743.1" width="55.46" height="36.9" as="geometry" />
        </mxCell>
        <mxCell id="n_CjR4kDcSBruVza5yp5-341" value="" style="whiteSpace=wrap;strokeColor=#000000;fillColor=#000000;direction=east;rotation=-90;" parent="n_CjR4kDcSBruVza5yp5-203" vertex="1">
          <mxGeometry x="185.14" y="838.44" width="5" height="203.32" as="geometry" />
        </mxCell>
        <mxCell id="n_CjR4kDcSBruVza5yp5-357" style="edgeStyle=orthogonalEdgeStyle;rounded=0;orthogonalLoop=1;jettySize=auto;html=1;exitX=0.5;exitY=1;exitDx=0;exitDy=0;entryX=0.442;entryY=0.124;entryDx=0;entryDy=0;entryPerimeter=0;" parent="n_CjR4kDcSBruVza5yp5-203" source="n_CjR4kDcSBruVza5yp5-343" target="n_CjR4kDcSBruVza5yp5-341" edge="1">
          <mxGeometry relative="1" as="geometry" />
        </mxCell>
        <mxCell id="n_CjR4kDcSBruVza5yp5-343" value="Mengubah status pembayaran menjadi diterima" style="whiteSpace=wrap;html=1;rounded=1;" parent="n_CjR4kDcSBruVza5yp5-203" vertex="1">
          <mxGeometry x="44.5" y="848.1" width="134" height="41.9" as="geometry" />
        </mxCell>
        <mxCell id="n_CjR4kDcSBruVza5yp5-358" style="edgeStyle=orthogonalEdgeStyle;rounded=0;orthogonalLoop=1;jettySize=auto;html=1;exitX=0.5;exitY=1;exitDx=0;exitDy=0;entryX=0.958;entryY=0.838;entryDx=0;entryDy=0;entryPerimeter=0;" parent="n_CjR4kDcSBruVza5yp5-203" source="n_CjR4kDcSBruVza5yp5-345" target="n_CjR4kDcSBruVza5yp5-341" edge="1">
          <mxGeometry relative="1" as="geometry" />
        </mxCell>
        <mxCell id="n_CjR4kDcSBruVza5yp5-345" value="Mengubah status pembayaran menjadi ditolak" style="whiteSpace=wrap;html=1;rounded=1;" parent="n_CjR4kDcSBruVza5yp5-203" vertex="1">
          <mxGeometry x="188.5" y="850.1" width="136" height="41.9" as="geometry" />
        </mxCell>
        <mxCell id="n_CjR4kDcSBruVza5yp5-347" value="Pembyaran Ditolak" style="text;html=1;align=center;verticalAlign=middle;resizable=0;points=[];autosize=1;strokeColor=none;fillColor=none;" parent="n_CjR4kDcSBruVza5yp5-203" vertex="1">
          <mxGeometry x="195.5" y="791.0999999999998" width="130" height="30" as="geometry" />
        </mxCell>
        <mxCell id="n_CjR4kDcSBruVza5yp5-346" value="Pembayaran Diterima" style="text;html=1;align=center;verticalAlign=middle;resizable=0;points=[];autosize=1;strokeColor=none;fillColor=none;" parent="n_CjR4kDcSBruVza5yp5-203" vertex="1">
          <mxGeometry x="9" y="791.0999999999998" width="140" height="30" as="geometry" />
        </mxCell>
        <mxCell id="n_CjR4kDcSBruVza5yp5-374" style="edgeStyle=orthogonalEdgeStyle;rounded=0;orthogonalLoop=1;jettySize=auto;html=1;exitX=0.5;exitY=1;exitDx=0;exitDy=0;entryX=0.5;entryY=0;entryDx=0;entryDy=0;" parent="n_CjR4kDcSBruVza5yp5-203" source="n_CjR4kDcSBruVza5yp5-370" target="n_CjR4kDcSBruVza5yp5-373" edge="1">
          <mxGeometry relative="1" as="geometry" />
        </mxCell>
        <mxCell id="n_CjR4kDcSBruVza5yp5-370" value="Mengubah status pesanan &#xa;(Diproses dan Selesai)" style="rounded=1;" parent="n_CjR4kDcSBruVza5yp5-203" vertex="1">
          <mxGeometry x="109.5" y="985.1" width="160.5" height="48.9" as="geometry" />
        </mxCell>
        <mxCell id="n_CjR4kDcSBruVza5yp5-381" style="edgeStyle=orthogonalEdgeStyle;rounded=0;orthogonalLoop=1;jettySize=auto;html=1;exitX=0;exitY=0.5;exitDx=0;exitDy=0;entryX=0.5;entryY=0;entryDx=0;entryDy=0;" parent="n_CjR4kDcSBruVza5yp5-203" source="n_CjR4kDcSBruVza5yp5-373" target="n_CjR4kDcSBruVza5yp5-380" edge="1">
          <mxGeometry relative="1" as="geometry" />
        </mxCell>
        <mxCell id="n_CjR4kDcSBruVza5yp5-387" style="edgeStyle=orthogonalEdgeStyle;rounded=0;orthogonalLoop=1;jettySize=auto;html=1;exitX=1;exitY=0.5;exitDx=0;exitDy=0;entryX=1.005;entryY=0.392;entryDx=0;entryDy=0;entryPerimeter=0;" parent="n_CjR4kDcSBruVza5yp5-203" source="n_CjR4kDcSBruVza5yp5-373" target="n_CjR4kDcSBruVza5yp5-370" edge="1">
          <mxGeometry relative="1" as="geometry">
            <Array as="points">
              <mxPoint x="320" y="1089" />
              <mxPoint x="320" y="1004" />
            </Array>
          </mxGeometry>
        </mxCell>
        <mxCell id="n_CjR4kDcSBruVza5yp5-373" value="" style="rhombus;fillColor=#dae8fc;strokeColor=#6c8ebf;" parent="n_CjR4kDcSBruVza5yp5-203" vertex="1">
          <mxGeometry x="157.26999999999998" y="1070.1" width="55.46" height="36.9" as="geometry" />
        </mxCell>
        <mxCell id="n_CjR4kDcSBruVza5yp5-385" style="edgeStyle=orthogonalEdgeStyle;rounded=0;orthogonalLoop=1;jettySize=auto;html=1;exitX=0.5;exitY=1;exitDx=0;exitDy=0;entryX=0.5;entryY=0;entryDx=0;entryDy=0;" parent="n_CjR4kDcSBruVza5yp5-203" source="n_CjR4kDcSBruVza5yp5-380" target="n_CjR4kDcSBruVza5yp5-384" edge="1">
          <mxGeometry relative="1" as="geometry" />
        </mxCell>
        <mxCell id="n_CjR4kDcSBruVza5yp5-380" value="Mengubah status pesanan menjadi &quot;Selesai&quot;" style="whiteSpace=wrap;html=1;rounded=1;" parent="n_CjR4kDcSBruVza5yp5-203" vertex="1">
          <mxGeometry x="39.64" y="1138.1" width="145.5" height="41.9" as="geometry" />
        </mxCell>
        <mxCell id="n_CjR4kDcSBruVza5yp5-382" value="&lt;font style=&quot;font-size: 11px;&quot;&gt;Selesai&lt;/font&gt;" style="text;html=1;align=center;verticalAlign=middle;resizable=0;points=[];autosize=1;strokeColor=none;fillColor=none;" parent="n_CjR4kDcSBruVza5yp5-203" vertex="1">
          <mxGeometry x="56.499999999999986" y="1090.0999999999997" width="60" height="30" as="geometry" />
        </mxCell>
        <mxCell id="n_CjR4kDcSBruVza5yp5-384" value="Menyimpan data transaksi" style="whiteSpace=wrap;html=1;rounded=1;" parent="n_CjR4kDcSBruVza5yp5-203" vertex="1">
          <mxGeometry x="39.63999999999987" y="1210.1" width="145.5" height="41.9" as="geometry" />
        </mxCell>
        <mxCell id="n_CjR4kDcSBruVza5yp5-388" value="&lt;font style=&quot;font-size: 11px;&quot;&gt;Diproses&lt;/font&gt;" style="text;html=1;align=center;verticalAlign=middle;resizable=0;points=[];autosize=1;strokeColor=none;fillColor=none;" parent="n_CjR4kDcSBruVza5yp5-203" vertex="1">
          <mxGeometry x="262" y="1035.9999999999998" width="70" height="30" as="geometry" />
        </mxCell>
        <mxCell id="n_CjR4kDcSBruVza5yp5-333" style="edgeStyle=orthogonalEdgeStyle;rounded=0;orthogonalLoop=1;jettySize=auto;html=1;exitX=0;exitY=0.75;exitDx=0;exitDy=0;entryX=0;entryY=0.5;entryDx=0;entryDy=0;" parent="1" source="n_CjR4kDcSBruVza5yp5-325" target="n_CjR4kDcSBruVza5yp5-331" edge="1">
          <mxGeometry relative="1" as="geometry" />
        </mxCell>
        <mxCell id="n_CjR4kDcSBruVza5yp5-334" style="edgeStyle=orthogonalEdgeStyle;rounded=0;orthogonalLoop=1;jettySize=auto;html=1;exitX=0;exitY=0.25;exitDx=0;exitDy=0;entryX=0;entryY=0.5;entryDx=0;entryDy=0;" parent="1" source="n_CjR4kDcSBruVza5yp5-325" target="n_CjR4kDcSBruVza5yp5-332" edge="1">
          <mxGeometry relative="1" as="geometry" />
        </mxCell>
        <mxCell id="n_CjR4kDcSBruVza5yp5-359" style="edgeStyle=orthogonalEdgeStyle;rounded=0;orthogonalLoop=1;jettySize=auto;html=1;exitX=0;exitY=0.5;exitDx=0;exitDy=0;entryX=1;entryY=0.5;entryDx=0;entryDy=0;" parent="1" source="n_CjR4kDcSBruVza5yp5-341" target="n_CjR4kDcSBruVza5yp5-354" edge="1">
          <mxGeometry relative="1" as="geometry" />
        </mxCell>
        <mxCell id="n_CjR4kDcSBruVza5yp5-371" style="edgeStyle=orthogonalEdgeStyle;rounded=0;orthogonalLoop=1;jettySize=auto;html=1;exitX=1;exitY=0.5;exitDx=0;exitDy=0;entryX=0;entryY=0.5;entryDx=0;entryDy=0;" parent="1" source="n_CjR4kDcSBruVza5yp5-365" target="n_CjR4kDcSBruVza5yp5-370" edge="1">
          <mxGeometry relative="1" as="geometry" />
        </mxCell>
        <mxCell id="n_CjR4kDcSBruVza5yp5-386" style="edgeStyle=orthogonalEdgeStyle;rounded=0;orthogonalLoop=1;jettySize=auto;html=1;exitX=0;exitY=0.5;exitDx=0;exitDy=0;entryX=1;entryY=0.5;entryDx=0;entryDy=0;" parent="1" source="n_CjR4kDcSBruVza5yp5-384" target="n_CjR4kDcSBruVza5yp5-376" edge="1">
          <mxGeometry relative="1" as="geometry" />
        </mxCell>
        <mxCell id="n_CjR4kDcSBruVza5yp5-389" value="PENGGUNA&amp;nbsp;" style="text;html=1;strokeColor=none;fillColor=none;align=center;verticalAlign=middle;whiteSpace=wrap;rounded=0;" parent="1" vertex="1">
          <mxGeometry x="2260" y="150" width="280" height="30" as="geometry" />
        </mxCell>
      </root>
    </mxGraphModel>
  </diagram>
  <diagram id="0W03eJZ19CIk6AnwoAtd" name="Halaman-2">
    <mxGraphModel dx="2171" dy="1382" grid="1" gridSize="10" guides="1" tooltips="1" connect="1" arrows="1" fold="1" page="1" pageScale="1" pageWidth="827" pageHeight="1169" math="0" shadow="0">
      <root>
        <mxCell id="0" />
        <mxCell id="1" parent="0" />
        <mxCell id="xRPPK4mGtJRfyNpccHIK-1" style="edgeStyle=orthogonalEdgeStyle;rounded=0;orthogonalLoop=1;jettySize=auto;html=1;" edge="1" parent="1" source="xRPPK4mGtJRfyNpccHIK-13">
          <mxGeometry relative="1" as="geometry">
            <mxPoint x="300" y="420.5899999999997" as="targetPoint" />
          </mxGeometry>
        </mxCell>
        <mxCell id="xRPPK4mGtJRfyNpccHIK-2" value="" style="ellipse;html=1;shape=startState;fillColor=#000000;strokeColor=none;" vertex="1" parent="1">
          <mxGeometry x="286" y="263.59000000000015" width="30" height="30" as="geometry" />
        </mxCell>
        <mxCell id="xRPPK4mGtJRfyNpccHIK-3" value="" style="edgeStyle=orthogonalEdgeStyle;html=1;verticalAlign=bottom;endArrow=open;endSize=8;strokeColor=#000000;rounded=0;entryX=0.5;entryY=0;entryDx=0;entryDy=0;" edge="1" parent="1" source="xRPPK4mGtJRfyNpccHIK-2" target="xRPPK4mGtJRfyNpccHIK-13">
          <mxGeometry relative="1" as="geometry">
            <mxPoint x="300" y="353.59000000000015" as="targetPoint" />
            <Array as="points">
              <mxPoint x="301" y="306.30999999999995" />
              <mxPoint x="301" y="306.30999999999995" />
            </Array>
          </mxGeometry>
        </mxCell>
        <mxCell id="xRPPK4mGtJRfyNpccHIK-4" style="edgeStyle=orthogonalEdgeStyle;rounded=0;orthogonalLoop=1;jettySize=auto;html=1;entryX=0.5;entryY=0;entryDx=0;entryDy=0;" edge="1" parent="1" source="xRPPK4mGtJRfyNpccHIK-5" target="xRPPK4mGtJRfyNpccHIK-7">
          <mxGeometry relative="1" as="geometry" />
        </mxCell>
        <mxCell id="xRPPK4mGtJRfyNpccHIK-5" value="Masuk ke halaman Registrasi" style="rounded=1;whiteSpace=wrap;html=1;" vertex="1" parent="1">
          <mxGeometry x="240" y="419.9000000000001" width="120" height="60" as="geometry" />
        </mxCell>
        <mxCell id="xRPPK4mGtJRfyNpccHIK-6" value="" style="edgeStyle=orthogonalEdgeStyle;rounded=0;orthogonalLoop=1;jettySize=auto;html=1;" edge="1" parent="1" source="xRPPK4mGtJRfyNpccHIK-7" target="xRPPK4mGtJRfyNpccHIK-9">
          <mxGeometry relative="1" as="geometry" />
        </mxCell>
        <mxCell id="xRPPK4mGtJRfyNpccHIK-7" value="Mengisi form registrasi" style="rounded=1;whiteSpace=wrap;html=1;" vertex="1" parent="1">
          <mxGeometry x="240" y="509.1100000000001" width="120" height="60" as="geometry" />
        </mxCell>
        <mxCell id="xRPPK4mGtJRfyNpccHIK-8" style="edgeStyle=orthogonalEdgeStyle;rounded=0;orthogonalLoop=1;jettySize=auto;html=1;exitX=1;exitY=0.5;exitDx=0;exitDy=0;" edge="1" parent="1" source="xRPPK4mGtJRfyNpccHIK-9" target="xRPPK4mGtJRfyNpccHIK-11">
          <mxGeometry relative="1" as="geometry">
            <mxPoint x="649" y="821.379655172414" as="targetPoint" />
          </mxGeometry>
        </mxCell>
        <mxCell id="xRPPK4mGtJRfyNpccHIK-9" value="Submit data registrasi" style="rounded=1;whiteSpace=wrap;html=1;" vertex="1" parent="1">
          <mxGeometry x="240" y="596.9000000000001" width="120" height="60" as="geometry" />
        </mxCell>
        <mxCell id="xRPPK4mGtJRfyNpccHIK-10" value="Sistem" style="swimlane;whiteSpace=wrap;html=1;startSize=23;" vertex="1" parent="1">
          <mxGeometry x="440" y="219.9" width="260" height="590.1" as="geometry" />
        </mxCell>
        <mxCell id="xRPPK4mGtJRfyNpccHIK-11" value="Memproses data registrasi yang diinputkan" style="rounded=1;whiteSpace=wrap;html=1;" vertex="1" parent="xRPPK4mGtJRfyNpccHIK-10">
          <mxGeometry x="61.98000000000047" y="376.9996551724139" width="120" height="60" as="geometry" />
        </mxCell>
        <mxCell id="xRPPK4mGtJRfyNpccHIK-12" value="User" style="swimlane;whiteSpace=wrap;html=1;startSize=23;" vertex="1" parent="1">
          <mxGeometry x="160" y="219.9" width="280" height="590.1" as="geometry" />
        </mxCell>
        <mxCell id="xRPPK4mGtJRfyNpccHIK-13" value="Masuk kehalaman utama (home)" style="rounded=1;whiteSpace=wrap;html=1;" vertex="1" parent="xRPPK4mGtJRfyNpccHIK-12">
          <mxGeometry x="81.11999999999989" y="109.30999999999995" width="120" height="60" as="geometry" />
        </mxCell>
        <mxCell id="xRPPK4mGtJRfyNpccHIK-14" value="PROSES REGISTER" style="text;html=1;strokeColor=none;fillColor=none;align=center;verticalAlign=middle;whiteSpace=wrap;rounded=0;" vertex="1" parent="1">
          <mxGeometry x="430" y="160" width="280" height="30" as="geometry" />
        </mxCell>
        <mxCell id="xRPPK4mGtJRfyNpccHIK-15" value="Database" style="swimlane;whiteSpace=wrap;html=1;startSize=23;" vertex="1" parent="1">
          <mxGeometry x="700" y="219.9" width="240" height="590.1" as="geometry" />
        </mxCell>
        <mxCell id="xRPPK4mGtJRfyNpccHIK-16" value="Akun berhasil ditambahkan" style="rounded=0;whiteSpace=wrap;html=1;" vertex="1" parent="xRPPK4mGtJRfyNpccHIK-15">
          <mxGeometry x="60.000000000000476" y="430.0996551724139" width="120" height="60" as="geometry" />
        </mxCell>
        <mxCell id="xRPPK4mGtJRfyNpccHIK-17" value="" style="ellipse;html=1;shape=endState;fillColor=#000000;strokeColor=#000000;" vertex="1" parent="xRPPK4mGtJRfyNpccHIK-15">
          <mxGeometry x="106.97999999999996" y="529.3799999999999" width="30" height="30" as="geometry" />
        </mxCell>
        <mxCell id="xRPPK4mGtJRfyNpccHIK-18" value="" style="edgeStyle=orthogonalEdgeStyle;rounded=0;orthogonalLoop=1;jettySize=auto;html=1;" edge="1" parent="xRPPK4mGtJRfyNpccHIK-15">
          <mxGeometry relative="1" as="geometry">
            <mxPoint x="120.97999999999996" y="489.3799999999999" as="sourcePoint" />
            <mxPoint x="120.98000000000002" y="529.3799999999998" as="targetPoint" />
          </mxGeometry>
        </mxCell>
        <mxCell id="xRPPK4mGtJRfyNpccHIK-19" style="edgeStyle=orthogonalEdgeStyle;rounded=0;orthogonalLoop=1;jettySize=auto;html=1;exitX=0.5;exitY=1;exitDx=0;exitDy=0;entryX=0;entryY=0.5;entryDx=0;entryDy=0;" edge="1" parent="1" source="xRPPK4mGtJRfyNpccHIK-11" target="xRPPK4mGtJRfyNpccHIK-16">
          <mxGeometry relative="1" as="geometry" />
        </mxCell>
        <mxCell id="xRPPK4mGtJRfyNpccHIK-20" style="edgeStyle=orthogonalEdgeStyle;rounded=0;orthogonalLoop=1;jettySize=auto;html=1;exitX=-0.041;exitY=0.588;exitDx=0;exitDy=0;exitPerimeter=0;entryX=1;entryY=0.5;entryDx=0;entryDy=0;" edge="1" parent="1" target="xRPPK4mGtJRfyNpccHIK-36">
          <mxGeometry relative="1" as="geometry">
            <mxPoint x="1181.0799999999995" y="364.49000000000007" as="sourcePoint" />
            <mxPoint x="1135.9998622442654" y="364.7542857142858" as="targetPoint" />
          </mxGeometry>
        </mxCell>
        <mxCell id="xRPPK4mGtJRfyNpccHIK-21" value="Masuk kehalaman utama (Home)" style="rounded=1;whiteSpace=wrap;html=1;" vertex="1" parent="1">
          <mxGeometry x="1180" y="329.2100000000001" width="120" height="60" as="geometry" />
        </mxCell>
        <mxCell id="xRPPK4mGtJRfyNpccHIK-22" value="" style="ellipse;html=1;shape=startState;fillColor=#000000;strokeColor=none;" vertex="1" parent="1">
          <mxGeometry x="1225" y="253.00000000000003" width="30" height="30" as="geometry" />
        </mxCell>
        <mxCell id="xRPPK4mGtJRfyNpccHIK-23" value="" style="edgeStyle=orthogonalEdgeStyle;html=1;verticalAlign=bottom;endArrow=open;endSize=8;strokeColor=#000000;rounded=0;entryX=0.5;entryY=0;entryDx=0;entryDy=0;" edge="1" parent="1" source="xRPPK4mGtJRfyNpccHIK-22" target="xRPPK4mGtJRfyNpccHIK-21">
          <mxGeometry relative="1" as="geometry">
            <mxPoint x="1240" y="343.00000000000006" as="targetPoint" />
          </mxGeometry>
        </mxCell>
        <mxCell id="xRPPK4mGtJRfyNpccHIK-24" style="edgeStyle=orthogonalEdgeStyle;rounded=0;orthogonalLoop=1;jettySize=auto;html=1;exitX=0.5;exitY=1;exitDx=0;exitDy=0;entryX=0.5;entryY=-0.048;entryDx=0;entryDy=0;entryPerimeter=0;" edge="1" parent="1" source="xRPPK4mGtJRfyNpccHIK-25" target="xRPPK4mGtJRfyNpccHIK-27">
          <mxGeometry relative="1" as="geometry" />
        </mxCell>
        <mxCell id="xRPPK4mGtJRfyNpccHIK-25" value="Masuk ke halaman Login" style="rounded=1;whiteSpace=wrap;html=1;" vertex="1" parent="1">
          <mxGeometry x="1184" y="430.00000000000006" width="120" height="60" as="geometry" />
        </mxCell>
        <mxCell id="xRPPK4mGtJRfyNpccHIK-26" style="edgeStyle=orthogonalEdgeStyle;rounded=0;orthogonalLoop=1;jettySize=auto;html=1;exitX=0.5;exitY=1;exitDx=0;exitDy=0;" edge="1" parent="1" source="xRPPK4mGtJRfyNpccHIK-27">
          <mxGeometry relative="1" as="geometry">
            <Array as="points">
              <mxPoint x="1244" y="627" />
            </Array>
            <mxPoint x="1525.12" y="627.31" as="targetPoint" />
          </mxGeometry>
        </mxCell>
        <mxCell id="xRPPK4mGtJRfyNpccHIK-27" value="Mengisi Email &amp;amp; password" style="rounded=1;whiteSpace=wrap;html=1;" vertex="1" parent="1">
          <mxGeometry x="1184" y="537" width="120" height="60" as="geometry" />
        </mxCell>
        <mxCell id="xRPPK4mGtJRfyNpccHIK-28" style="edgeStyle=orthogonalEdgeStyle;rounded=0;orthogonalLoop=1;jettySize=auto;html=1;entryX=0.5;entryY=0;entryDx=0;entryDy=0;" edge="1" parent="1" target="xRPPK4mGtJRfyNpccHIK-25">
          <mxGeometry relative="1" as="geometry">
            <mxPoint x="1244" y="390.00000000000006" as="sourcePoint" />
          </mxGeometry>
        </mxCell>
        <mxCell id="xRPPK4mGtJRfyNpccHIK-29" style="edgeStyle=orthogonalEdgeStyle;rounded=0;orthogonalLoop=1;jettySize=auto;html=1;exitX=0;exitY=1;exitDx=0;exitDy=0;entryX=0.5;entryY=0;entryDx=0;entryDy=0;" edge="1" parent="1">
          <mxGeometry relative="1" as="geometry">
            <Array as="points">
              <mxPoint x="1518.12" y="715" />
            </Array>
            <mxPoint x="1573.12" y="715" as="sourcePoint" />
            <mxPoint x="1518.12" y="735" as="targetPoint" />
          </mxGeometry>
        </mxCell>
        <mxCell id="xRPPK4mGtJRfyNpccHIK-30" style="edgeStyle=orthogonalEdgeStyle;rounded=0;orthogonalLoop=1;jettySize=auto;html=1;entryX=0.5;entryY=0;entryDx=0;entryDy=0;" edge="1" parent="1">
          <mxGeometry relative="1" as="geometry">
            <mxPoint x="1600.12" y="715.31" as="sourcePoint" />
            <mxPoint x="1651.12" y="735" as="targetPoint" />
            <Array as="points">
              <mxPoint x="1651.12" y="715" />
            </Array>
          </mxGeometry>
        </mxCell>
        <mxCell id="xRPPK4mGtJRfyNpccHIK-31" value="Validasi&amp;nbsp;&lt;br&gt;Data" style="rhombus;whiteSpace=wrap;html=1;fillColor=#dae8fc;strokeColor=#6c8ebf;" vertex="1" parent="1">
          <mxGeometry x="1553" y="680" width="75.12" height="45" as="geometry" />
        </mxCell>
        <mxCell id="xRPPK4mGtJRfyNpccHIK-32" value="" style="edgeStyle=orthogonalEdgeStyle;rounded=0;orthogonalLoop=1;jettySize=auto;html=1;" edge="1" parent="1">
          <mxGeometry relative="1" as="geometry">
            <mxPoint x="1519.0769230769229" y="757" as="sourcePoint" />
            <mxPoint x="1519.0769230769229" y="796.31" as="targetPoint" />
          </mxGeometry>
        </mxCell>
        <mxCell id="xRPPK4mGtJRfyNpccHIK-33" value="Data Salah" style="text;html=1;strokeColor=none;fillColor=none;align=center;verticalAlign=middle;whiteSpace=wrap;rounded=0;" vertex="1" parent="1">
          <mxGeometry x="1478.12" y="735" width="80" height="30" as="geometry" />
        </mxCell>
        <mxCell id="xRPPK4mGtJRfyNpccHIK-34" style="edgeStyle=orthogonalEdgeStyle;rounded=0;orthogonalLoop=1;jettySize=auto;html=1;exitX=0.5;exitY=1;exitDx=0;exitDy=0;entryX=0.5;entryY=0;entryDx=0;entryDy=0;" edge="1" parent="1" source="xRPPK4mGtJRfyNpccHIK-35" target="xRPPK4mGtJRfyNpccHIK-31">
          <mxGeometry relative="1" as="geometry" />
        </mxCell>
        <mxCell id="xRPPK4mGtJRfyNpccHIK-35" value="Memverifikasi" style="whiteSpace=wrap;html=1;rounded=1;" vertex="1" parent="1">
          <mxGeometry x="1530.12" y="594.31" width="120" height="60" as="geometry" />
        </mxCell>
        <mxCell id="xRPPK4mGtJRfyNpccHIK-36" value="" style="ellipse;html=1;shape=endState;fillColor=#000000;strokeColor=#000000;" vertex="1" parent="1">
          <mxGeometry x="1100" y="349.6900000000001" width="30" height="30" as="geometry" />
        </mxCell>
        <mxCell id="xRPPK4mGtJRfyNpccHIK-37" value="PROSES LOGIN" style="text;html=1;strokeColor=none;fillColor=none;align=center;verticalAlign=middle;whiteSpace=wrap;rounded=0;" vertex="1" parent="1">
          <mxGeometry x="1269" y="160.00000000000003" width="280" height="30" as="geometry" />
        </mxCell>
        <mxCell id="xRPPK4mGtJRfyNpccHIK-38" style="edgeStyle=orthogonalEdgeStyle;rounded=0;orthogonalLoop=1;jettySize=auto;html=1;" edge="1" parent="1" target="xRPPK4mGtJRfyNpccHIK-21">
          <mxGeometry relative="1" as="geometry">
            <Array as="points">
              <mxPoint x="1720" y="749.04" />
              <mxPoint x="1720" y="359.04" />
            </Array>
            <mxPoint x="1688.12" y="749.04" as="sourcePoint" />
            <mxPoint x="1310" y="359.04" as="targetPoint" />
          </mxGeometry>
        </mxCell>
        <mxCell id="xRPPK4mGtJRfyNpccHIK-39" style="edgeStyle=orthogonalEdgeStyle;rounded=0;orthogonalLoop=1;jettySize=auto;html=1;entryX=0;entryY=0.5;entryDx=0;entryDy=0;" edge="1" parent="1" source="xRPPK4mGtJRfyNpccHIK-40" target="xRPPK4mGtJRfyNpccHIK-27">
          <mxGeometry relative="1" as="geometry" />
        </mxCell>
        <mxCell id="xRPPK4mGtJRfyNpccHIK-40" value="Menampilkan alert data salah" style="rounded=1;whiteSpace=wrap;html=1;" vertex="1" parent="1">
          <mxGeometry x="1459.12" y="798.31" width="120" height="60" as="geometry" />
        </mxCell>
        <mxCell id="xRPPK4mGtJRfyNpccHIK-41" value="User" style="swimlane;whiteSpace=wrap;html=1;" vertex="1" parent="1">
          <mxGeometry x="1070" y="217.48999999999998" width="354" height="661.55" as="geometry" />
        </mxCell>
        <mxCell id="xRPPK4mGtJRfyNpccHIK-42" value="Sistem" style="swimlane;whiteSpace=wrap;html=1;startSize=23;" vertex="1" parent="1">
          <mxGeometry x="1424" y="217.48999999999998" width="324" height="661.55" as="geometry" />
        </mxCell>
        <mxCell id="xRPPK4mGtJRfyNpccHIK-43" value="Data Benar" style="text;html=1;strokeColor=none;fillColor=none;align=center;verticalAlign=middle;whiteSpace=wrap;rounded=0;" vertex="1" parent="xRPPK4mGtJRfyNpccHIK-42">
          <mxGeometry x="188.12" y="515.0999999999999" width="80" height="30" as="geometry" />
        </mxCell>
        <mxCell id="xRPPK4mGtJRfyNpccHIK-44" value="Sistem" style="swimlane;whiteSpace=wrap;html=1;startSize=23;" vertex="1" parent="1">
          <mxGeometry x="580" y="1001" width="318" height="919" as="geometry" />
        </mxCell>
        <mxCell id="xRPPK4mGtJRfyNpccHIK-45" style="edgeStyle=orthogonalEdgeStyle;rounded=0;orthogonalLoop=1;jettySize=auto;html=1;exitX=0.5;exitY=1;exitDx=0;exitDy=0;entryX=0.5;entryY=0;entryDx=0;entryDy=0;" edge="1" parent="xRPPK4mGtJRfyNpccHIK-44" source="xRPPK4mGtJRfyNpccHIK-46">
          <mxGeometry relative="1" as="geometry">
            <mxPoint x="157.8900000000001" y="230.00000000000023" as="targetPoint" />
          </mxGeometry>
        </mxCell>
        <mxCell id="xRPPK4mGtJRfyNpccHIK-46" value="&lt;font style=&quot;font-size: 11px;&quot;&gt;Validasi&amp;nbsp;&lt;br&gt;Login&lt;/font&gt;" style="rhombus;whiteSpace=wrap;html=1;fillColor=#dae8fc;strokeColor=#6c8ebf;" vertex="1" parent="xRPPK4mGtJRfyNpccHIK-44">
          <mxGeometry x="120.33" y="96.00000000000003" width="75.12" height="45" as="geometry" />
        </mxCell>
        <mxCell id="xRPPK4mGtJRfyNpccHIK-47" value="Menampilkan halaman dashboard admin" style="rounded=1;whiteSpace=wrap;html=1;" vertex="1" parent="xRPPK4mGtJRfyNpccHIK-44">
          <mxGeometry x="34.78" y="229" width="226.22" height="34" as="geometry" />
        </mxCell>
        <mxCell id="xRPPK4mGtJRfyNpccHIK-48" value="Tidak valid" style="text;html=1;align=center;verticalAlign=middle;resizable=0;points=[];autosize=1;strokeColor=none;fillColor=none;" vertex="1" parent="xRPPK4mGtJRfyNpccHIK-44">
          <mxGeometry x="5" y="153" width="80" height="30" as="geometry" />
        </mxCell>
        <mxCell id="xRPPK4mGtJRfyNpccHIK-49" value="Menampilkan halaman kelola data" style="rounded=1;whiteSpace=wrap;html=1;" vertex="1" parent="xRPPK4mGtJRfyNpccHIK-44">
          <mxGeometry x="47.22" y="290" width="223.78" height="31" as="geometry" />
        </mxCell>
        <mxCell id="xRPPK4mGtJRfyNpccHIK-50" style="edgeStyle=orthogonalEdgeStyle;rounded=0;orthogonalLoop=1;jettySize=auto;html=1;exitX=0.5;exitY=1;exitDx=0;exitDy=0;entryX=0.5;entryY=0;entryDx=0;entryDy=0;" edge="1" parent="xRPPK4mGtJRfyNpccHIK-44">
          <mxGeometry relative="1" as="geometry">
            <mxPoint x="159.00000000000023" y="408" as="sourcePoint" />
            <mxPoint x="159.00000000000023" y="438" as="targetPoint" />
          </mxGeometry>
        </mxCell>
        <mxCell id="xRPPK4mGtJRfyNpccHIK-51" value="Menyimpan data yang ditambah" style="rounded=1;whiteSpace=wrap;html=1;" vertex="1" parent="xRPPK4mGtJRfyNpccHIK-44">
          <mxGeometry x="48.11" y="378" width="223.78" height="31" as="geometry" />
        </mxCell>
        <mxCell id="xRPPK4mGtJRfyNpccHIK-52" value="Menampilkan list data" style="rounded=1;whiteSpace=wrap;html=1;" vertex="1" parent="xRPPK4mGtJRfyNpccHIK-44">
          <mxGeometry x="48.110000000000014" y="438" width="223.78" height="31" as="geometry" />
        </mxCell>
        <mxCell id="xRPPK4mGtJRfyNpccHIK-53" style="edgeStyle=orthogonalEdgeStyle;rounded=0;orthogonalLoop=1;jettySize=auto;html=1;exitX=0.5;exitY=1;exitDx=0;exitDy=0;entryX=0.5;entryY=0;entryDx=0;entryDy=0;" edge="1" parent="xRPPK4mGtJRfyNpccHIK-44">
          <mxGeometry relative="1" as="geometry">
            <mxPoint x="159.00000000000023" y="523" as="sourcePoint" />
            <mxPoint x="159.00000000000023" y="550" as="targetPoint" />
          </mxGeometry>
        </mxCell>
        <mxCell id="xRPPK4mGtJRfyNpccHIK-54" value="Menyimpan perubahan data yang dipilih" style="rounded=1;whiteSpace=wrap;html=1;" vertex="1" parent="xRPPK4mGtJRfyNpccHIK-44">
          <mxGeometry x="48.110000000000014" y="493" width="223.78" height="31" as="geometry" />
        </mxCell>
        <mxCell id="xRPPK4mGtJRfyNpccHIK-55" value="Menampilkan list data" style="rounded=1;whiteSpace=wrap;html=1;" vertex="1" parent="xRPPK4mGtJRfyNpccHIK-44">
          <mxGeometry x="48.110000000000014" y="550" width="223.78" height="31" as="geometry" />
        </mxCell>
        <mxCell id="xRPPK4mGtJRfyNpccHIK-56" style="edgeStyle=orthogonalEdgeStyle;rounded=0;orthogonalLoop=1;jettySize=auto;html=1;exitX=0.5;exitY=1;exitDx=0;exitDy=0;entryX=0.5;entryY=0;entryDx=0;entryDy=0;" edge="1" parent="xRPPK4mGtJRfyNpccHIK-44" source="xRPPK4mGtJRfyNpccHIK-57" target="xRPPK4mGtJRfyNpccHIK-58">
          <mxGeometry relative="1" as="geometry" />
        </mxCell>
        <mxCell id="xRPPK4mGtJRfyNpccHIK-57" value="Menghapus data terpilih" style="rounded=1;whiteSpace=wrap;html=1;" vertex="1" parent="xRPPK4mGtJRfyNpccHIK-44">
          <mxGeometry x="48.110000000000014" y="606" width="223.78" height="31" as="geometry" />
        </mxCell>
        <mxCell id="xRPPK4mGtJRfyNpccHIK-58" value="Menampilkan list data" style="rounded=1;whiteSpace=wrap;html=1;" vertex="1" parent="xRPPK4mGtJRfyNpccHIK-44">
          <mxGeometry x="47" y="666" width="223.78" height="31" as="geometry" />
        </mxCell>
        <mxCell id="xRPPK4mGtJRfyNpccHIK-61" value="" style="line;strokeWidth=6;html=1;perimeter=backbonePerimeter;points=[];outlineConnect=0;" vertex="1" parent="xRPPK4mGtJRfyNpccHIK-44">
          <mxGeometry x="125.94" y="740" width="67.89" height="40" as="geometry" />
        </mxCell>
        <mxCell id="xRPPK4mGtJRfyNpccHIK-62" style="edgeStyle=orthogonalEdgeStyle;rounded=0;orthogonalLoop=1;jettySize=auto;html=1;exitX=0.5;exitY=1;exitDx=0;exitDy=0;entryX=0.5;entryY=0;entryDx=0;entryDy=0;" edge="1" parent="xRPPK4mGtJRfyNpccHIK-44" source="xRPPK4mGtJRfyNpccHIK-63" target="xRPPK4mGtJRfyNpccHIK-64">
          <mxGeometry relative="1" as="geometry" />
        </mxCell>
        <mxCell id="xRPPK4mGtJRfyNpccHIK-63" value="Logout" style="rounded=1;whiteSpace=wrap;html=1;" vertex="1" parent="xRPPK4mGtJRfyNpccHIK-44">
          <mxGeometry x="115.67000000000007" y="800" width="84.44" height="24.69" as="geometry" />
        </mxCell>
        <mxCell id="xRPPK4mGtJRfyNpccHIK-64" value="" style="ellipse;html=1;shape=endState;fillColor=#000000;strokeColor=#000000;" vertex="1" parent="xRPPK4mGtJRfyNpccHIK-44">
          <mxGeometry x="142.89" y="861" width="30" height="30" as="geometry" />
        </mxCell>
        <mxCell id="xRPPK4mGtJRfyNpccHIK-65" value="Admin" style="swimlane;whiteSpace=wrap;html=1;startSize=23;" vertex="1" parent="1">
          <mxGeometry x="280" y="1000.9" width="300" height="919.1" as="geometry" />
        </mxCell>
        <mxCell id="xRPPK4mGtJRfyNpccHIK-66" style="edgeStyle=orthogonalEdgeStyle;rounded=0;orthogonalLoop=1;jettySize=auto;html=1;exitX=1;exitY=0.5;exitDx=0;exitDy=0;" edge="1" parent="xRPPK4mGtJRfyNpccHIK-65" source="xRPPK4mGtJRfyNpccHIK-67">
          <mxGeometry relative="1" as="geometry">
            <mxPoint x="420" y="119.10000000000002" as="targetPoint" />
          </mxGeometry>
        </mxCell>
        <mxCell id="xRPPK4mGtJRfyNpccHIK-67" value="Login" style="rounded=1;whiteSpace=wrap;html=1;" vertex="1" parent="xRPPK4mGtJRfyNpccHIK-65">
          <mxGeometry x="105.56" y="106.31" width="84.44" height="24.69" as="geometry" />
        </mxCell>
        <mxCell id="xRPPK4mGtJRfyNpccHIK-68" value="&lt;span style=&quot;font-size: 11px;&quot;&gt;Pilih &lt;br&gt;menu&lt;/span&gt;" style="rhombus;whiteSpace=wrap;html=1;fillColor=#dae8fc;strokeColor=#6c8ebf;" vertex="1" parent="xRPPK4mGtJRfyNpccHIK-65">
          <mxGeometry x="116.22" y="225.10000000000002" width="67.56" height="40.9" as="geometry" />
        </mxCell>
        <mxCell id="xRPPK4mGtJRfyNpccHIK-69" value="Menambahkan data baru" style="rounded=1;whiteSpace=wrap;html=1;" vertex="1" parent="xRPPK4mGtJRfyNpccHIK-65">
          <mxGeometry x="61.55" y="342.67999999999995" width="176.89" height="30.42" as="geometry" />
        </mxCell>
        <mxCell id="xRPPK4mGtJRfyNpccHIK-70" value="Mengubah data&amp;nbsp;" style="rounded=1;whiteSpace=wrap;html=1;" vertex="1" parent="xRPPK4mGtJRfyNpccHIK-65">
          <mxGeometry x="61.55" y="438.1" width="176.89" height="30.9" as="geometry" />
        </mxCell>
        <mxCell id="xRPPK4mGtJRfyNpccHIK-71" value="Menghapus data&amp;nbsp;" style="rounded=1;whiteSpace=wrap;html=1;" vertex="1" parent="xRPPK4mGtJRfyNpccHIK-65">
          <mxGeometry x="59.33" y="550.1" width="176.89" height="30.9" as="geometry" />
        </mxCell>
        <mxCell id="xRPPK4mGtJRfyNpccHIK-73" value="Ya" style="text;html=1;align=center;verticalAlign=middle;resizable=0;points=[];autosize=1;strokeColor=none;fillColor=none;" vertex="1" parent="xRPPK4mGtJRfyNpccHIK-65">
          <mxGeometry x="203.89" y="279.1" width="40" height="30" as="geometry" />
        </mxCell>
        <mxCell id="xRPPK4mGtJRfyNpccHIK-74" value="Tidak" style="text;html=1;align=center;verticalAlign=middle;resizable=0;points=[];autosize=1;strokeColor=none;fillColor=none;" vertex="1" parent="xRPPK4mGtJRfyNpccHIK-65">
          <mxGeometry x="54.329999999999984" y="244.10000000000002" width="50" height="30" as="geometry" />
        </mxCell>
        <mxCell id="xRPPK4mGtJRfyNpccHIK-75" value="" style="edgeStyle=orthogonalEdgeStyle;rounded=0;orthogonalLoop=1;jettySize=auto;html=1;exitX=0.437;exitY=0.815;exitDx=0;exitDy=0;exitPerimeter=0;" edge="1" parent="xRPPK4mGtJRfyNpccHIK-65" source="xRPPK4mGtJRfyNpccHIK-76" target="xRPPK4mGtJRfyNpccHIK-67">
          <mxGeometry relative="1" as="geometry">
            <Array as="points">
              <mxPoint x="148" y="74" />
            </Array>
          </mxGeometry>
        </mxCell>
        <mxCell id="xRPPK4mGtJRfyNpccHIK-76" value="" style="ellipse;html=1;shape=startState;fillColor=#000000;strokeColor=none;" vertex="1" parent="xRPPK4mGtJRfyNpccHIK-65">
          <mxGeometry x="132.77999999999997" y="49.10000000000025" width="30" height="30" as="geometry" />
        </mxCell>
        <mxCell id="xRPPK4mGtJRfyNpccHIK-77" value="ADMIN" style="text;html=1;strokeColor=none;fillColor=none;align=center;verticalAlign=middle;whiteSpace=wrap;rounded=0;" vertex="1" parent="1">
          <mxGeometry x="430" y="950" width="280" height="30" as="geometry" />
        </mxCell>
        <mxCell id="xRPPK4mGtJRfyNpccHIK-78" style="edgeStyle=orthogonalEdgeStyle;rounded=0;orthogonalLoop=1;jettySize=auto;html=1;entryX=0.5;entryY=1;entryDx=0;entryDy=0;" edge="1" parent="1" target="xRPPK4mGtJRfyNpccHIK-67">
          <mxGeometry relative="1" as="geometry">
            <mxPoint x="740" y="1180" as="sourcePoint" />
            <mxPoint x="430" y="1150.9" as="targetPoint" />
          </mxGeometry>
        </mxCell>
        <mxCell id="xRPPK4mGtJRfyNpccHIK-79" value="Valid" style="text;html=1;align=center;verticalAlign=middle;resizable=0;points=[];autosize=1;strokeColor=none;fillColor=none;" vertex="1" parent="1">
          <mxGeometry x="732" y="1189" width="50" height="30" as="geometry" />
        </mxCell>
        <mxCell id="xRPPK4mGtJRfyNpccHIK-80" style="edgeStyle=orthogonalEdgeStyle;rounded=0;orthogonalLoop=1;jettySize=auto;html=1;exitX=0;exitY=0.5;exitDx=0;exitDy=0;entryX=1;entryY=0.5;entryDx=0;entryDy=0;" edge="1" parent="1" source="xRPPK4mGtJRfyNpccHIK-47" target="xRPPK4mGtJRfyNpccHIK-68">
          <mxGeometry relative="1" as="geometry" />
        </mxCell>
        <mxCell id="xRPPK4mGtJRfyNpccHIK-81" style="edgeStyle=orthogonalEdgeStyle;rounded=0;orthogonalLoop=1;jettySize=auto;html=1;exitX=0.5;exitY=1;exitDx=0;exitDy=0;entryX=0;entryY=0.5;entryDx=0;entryDy=0;" edge="1" parent="1" source="xRPPK4mGtJRfyNpccHIK-68" target="xRPPK4mGtJRfyNpccHIK-49">
          <mxGeometry relative="1" as="geometry" />
        </mxCell>
        <mxCell id="xRPPK4mGtJRfyNpccHIK-82" style="edgeStyle=orthogonalEdgeStyle;rounded=0;orthogonalLoop=1;jettySize=auto;html=1;exitX=0.5;exitY=1;exitDx=0;exitDy=0;entryX=1;entryY=0.5;entryDx=0;entryDy=0;" edge="1" parent="1" source="xRPPK4mGtJRfyNpccHIK-49" target="xRPPK4mGtJRfyNpccHIK-69">
          <mxGeometry relative="1" as="geometry" />
        </mxCell>
        <mxCell id="xRPPK4mGtJRfyNpccHIK-83" style="edgeStyle=orthogonalEdgeStyle;rounded=0;orthogonalLoop=1;jettySize=auto;html=1;exitX=0.5;exitY=1;exitDx=0;exitDy=0;entryX=0;entryY=0.5;entryDx=0;entryDy=0;" edge="1" parent="1" source="xRPPK4mGtJRfyNpccHIK-70" target="xRPPK4mGtJRfyNpccHIK-54">
          <mxGeometry relative="1" as="geometry" />
        </mxCell>
        <mxCell id="xRPPK4mGtJRfyNpccHIK-84" style="edgeStyle=orthogonalEdgeStyle;rounded=0;orthogonalLoop=1;jettySize=auto;html=1;exitX=0;exitY=0.5;exitDx=0;exitDy=0;entryX=1;entryY=0.5;entryDx=0;entryDy=0;" edge="1" parent="1" source="xRPPK4mGtJRfyNpccHIK-55" target="xRPPK4mGtJRfyNpccHIK-71">
          <mxGeometry relative="1" as="geometry" />
        </mxCell>
        <mxCell id="xRPPK4mGtJRfyNpccHIK-85" style="edgeStyle=orthogonalEdgeStyle;rounded=0;orthogonalLoop=1;jettySize=auto;html=1;exitX=0.5;exitY=1;exitDx=0;exitDy=0;entryX=0;entryY=0.5;entryDx=0;entryDy=0;" edge="1" parent="1" source="xRPPK4mGtJRfyNpccHIK-69" target="xRPPK4mGtJRfyNpccHIK-51">
          <mxGeometry relative="1" as="geometry">
            <Array as="points">
              <mxPoint x="430" y="1394" />
              <mxPoint x="568" y="1394" />
            </Array>
          </mxGeometry>
        </mxCell>
        <mxCell id="xRPPK4mGtJRfyNpccHIK-86" style="edgeStyle=orthogonalEdgeStyle;rounded=0;orthogonalLoop=1;jettySize=auto;html=1;exitX=0.5;exitY=1;exitDx=0;exitDy=0;entryX=0;entryY=0.5;entryDx=0;entryDy=0;" edge="1" parent="1" source="xRPPK4mGtJRfyNpccHIK-71" target="xRPPK4mGtJRfyNpccHIK-57">
          <mxGeometry relative="1" as="geometry" />
        </mxCell>
        <mxCell id="xRPPK4mGtJRfyNpccHIK-88" style="edgeStyle=orthogonalEdgeStyle;rounded=0;orthogonalLoop=1;jettySize=auto;html=1;exitX=0.5;exitY=1;exitDx=0;exitDy=0;" edge="1" parent="1">
          <mxGeometry relative="1" as="geometry">
            <mxPoint x="740.0000000000002" y="1764" as="sourcePoint" />
            <mxPoint x="739.9000000000001" y="1801" as="targetPoint" />
          </mxGeometry>
        </mxCell>
        <mxCell id="xRPPK4mGtJRfyNpccHIK-89" style="edgeStyle=orthogonalEdgeStyle;rounded=0;orthogonalLoop=1;jettySize=auto;html=1;exitX=0;exitY=0.5;exitDx=0;exitDy=0;" edge="1" parent="1" source="xRPPK4mGtJRfyNpccHIK-68" target="xRPPK4mGtJRfyNpccHIK-61">
          <mxGeometry relative="1" as="geometry">
            <mxPoint x="391.22" y="1251.45" as="sourcePoint" />
            <mxPoint x="708" y="1805" as="targetPoint" />
            <Array as="points">
              <mxPoint x="320" y="1247" />
              <mxPoint x="320" y="1720" />
              <mxPoint x="720" y="1720" />
            </Array>
          </mxGeometry>
        </mxCell>
        <mxCell id="xRPPK4mGtJRfyNpccHIK-90" style="edgeStyle=orthogonalEdgeStyle;rounded=0;orthogonalLoop=1;jettySize=auto;html=1;exitX=0;exitY=0.5;exitDx=0;exitDy=0;entryX=1;entryY=0.5;entryDx=0;entryDy=0;" edge="1" parent="1" source="xRPPK4mGtJRfyNpccHIK-52" target="xRPPK4mGtJRfyNpccHIK-70">
          <mxGeometry relative="1" as="geometry" />
        </mxCell>
        <mxCell id="xRPPK4mGtJRfyNpccHIK-92" value="User" style="swimlane;whiteSpace=wrap" vertex="1" parent="1">
          <mxGeometry x="2040" y="219.9" width="400" height="1040.1" as="geometry" />
        </mxCell>
        <mxCell id="xRPPK4mGtJRfyNpccHIK-93" style="edgeStyle=orthogonalEdgeStyle;rounded=0;orthogonalLoop=1;jettySize=auto;html=1;exitX=0.5;exitY=1;exitDx=0;exitDy=0;" edge="1" parent="xRPPK4mGtJRfyNpccHIK-92">
          <mxGeometry relative="1" as="geometry">
            <mxPoint x="210" y="74" as="sourcePoint" />
            <mxPoint x="210" y="107.09999999999991" as="targetPoint" />
          </mxGeometry>
        </mxCell>
        <mxCell id="xRPPK4mGtJRfyNpccHIK-94" value="" style="ellipse;shape=startState;fillColor=#000000;strokeColor=none;" vertex="1" parent="xRPPK4mGtJRfyNpccHIK-92">
          <mxGeometry x="195" y="47" width="30" height="30" as="geometry" />
        </mxCell>
        <mxCell id="xRPPK4mGtJRfyNpccHIK-95" value="" style="edgeStyle=orthogonalEdgeStyle;rounded=0;orthogonalLoop=1;jettySize=auto;html=1;" edge="1" parent="xRPPK4mGtJRfyNpccHIK-92" source="xRPPK4mGtJRfyNpccHIK-96" target="xRPPK4mGtJRfyNpccHIK-98">
          <mxGeometry relative="1" as="geometry" />
        </mxCell>
        <mxCell id="xRPPK4mGtJRfyNpccHIK-96" value="Masuk ke halaman produk" style="verticalAlign=middle;horizontal=1;whiteSpace=wrap;rounded=1;" vertex="1" parent="xRPPK4mGtJRfyNpccHIK-92">
          <mxGeometry x="150" y="110.1" width="120" height="39.9" as="geometry" />
        </mxCell>
        <mxCell id="xRPPK4mGtJRfyNpccHIK-97" value="" style="edgeStyle=orthogonalEdgeStyle;rounded=0;orthogonalLoop=1;jettySize=auto;html=1;entryX=1;entryY=0.5;entryDx=0;entryDy=0;" edge="1" parent="xRPPK4mGtJRfyNpccHIK-92" source="xRPPK4mGtJRfyNpccHIK-98">
          <mxGeometry relative="1" as="geometry">
            <mxPoint x="210" y="254.1" as="targetPoint" />
          </mxGeometry>
        </mxCell>
        <mxCell id="xRPPK4mGtJRfyNpccHIK-98" value="Memilih produk " style="rounded=1;" vertex="1" parent="xRPPK4mGtJRfyNpccHIK-92">
          <mxGeometry x="155" y="175.1" width="110" height="36.9" as="geometry" />
        </mxCell>
        <mxCell id="xRPPK4mGtJRfyNpccHIK-112" style="edgeStyle=orthogonalEdgeStyle;rounded=0;orthogonalLoop=1;jettySize=auto;html=1;exitX=0.5;exitY=1;exitDx=0;exitDy=0;" edge="1" parent="xRPPK4mGtJRfyNpccHIK-92" source="xRPPK4mGtJRfyNpccHIK-113" target="xRPPK4mGtJRfyNpccHIK-118">
          <mxGeometry relative="1" as="geometry" />
        </mxCell>
        <mxCell id="xRPPK4mGtJRfyNpccHIK-113" value="Selesai memilih pesanan " style="rounded=1;" vertex="1" parent="xRPPK4mGtJRfyNpccHIK-92">
          <mxGeometry x="136" y="254.10000000000002" width="150" height="36.9" as="geometry" />
        </mxCell>
        <mxCell id="xRPPK4mGtJRfyNpccHIK-114" style="edgeStyle=orthogonalEdgeStyle;rounded=0;orthogonalLoop=1;jettySize=auto;html=1;exitX=1;exitY=0.5;exitDx=0;exitDy=0;entryX=1;entryY=0.5;entryDx=0;entryDy=0;" edge="1" parent="xRPPK4mGtJRfyNpccHIK-92" source="xRPPK4mGtJRfyNpccHIK-116" target="xRPPK4mGtJRfyNpccHIK-119">
          <mxGeometry relative="1" as="geometry" />
        </mxCell>
        <mxCell id="xRPPK4mGtJRfyNpccHIK-115" style="edgeStyle=orthogonalEdgeStyle;rounded=0;orthogonalLoop=1;jettySize=auto;html=1;exitX=0.5;exitY=1;exitDx=0;exitDy=0;entryX=0.5;entryY=0;entryDx=0;entryDy=0;" edge="1" parent="xRPPK4mGtJRfyNpccHIK-92" source="xRPPK4mGtJRfyNpccHIK-116" target="xRPPK4mGtJRfyNpccHIK-121">
          <mxGeometry relative="1" as="geometry" />
        </mxCell>
        <mxCell id="xRPPK4mGtJRfyNpccHIK-116" value="Submit form &#xa;transaksi pemesanan" style="rounded=1;" vertex="1" parent="xRPPK4mGtJRfyNpccHIK-92">
          <mxGeometry x="136" y="397.10000000000014" width="150" height="36.9" as="geometry" />
        </mxCell>
        <mxCell id="xRPPK4mGtJRfyNpccHIK-117" style="edgeStyle=orthogonalEdgeStyle;rounded=0;orthogonalLoop=1;jettySize=auto;html=1;exitX=0.5;exitY=1;exitDx=0;exitDy=0;entryX=0.5;entryY=0;entryDx=0;entryDy=0;" edge="1" parent="xRPPK4mGtJRfyNpccHIK-92" source="xRPPK4mGtJRfyNpccHIK-118" target="xRPPK4mGtJRfyNpccHIK-116">
          <mxGeometry relative="1" as="geometry" />
        </mxCell>
        <mxCell id="xRPPK4mGtJRfyNpccHIK-118" value="Melakukan pembayaran" style="rounded=1;" vertex="1" parent="xRPPK4mGtJRfyNpccHIK-92">
          <mxGeometry x="136" y="326.1" width="150" height="36.9" as="geometry" />
        </mxCell>
        <mxCell id="xRPPK4mGtJRfyNpccHIK-119" value="" style="whiteSpace=wrap;strokeColor=#000000;fillColor=#000000;direction=north;rotation=-90;" vertex="1" parent="xRPPK4mGtJRfyNpccHIK-92">
          <mxGeometry x="303" y="414.04999999999995" width="50" height="5" as="geometry" />
        </mxCell>
        <mxCell id="xRPPK4mGtJRfyNpccHIK-120" style="edgeStyle=orthogonalEdgeStyle;rounded=0;orthogonalLoop=1;jettySize=auto;html=1;exitX=0.5;exitY=1;exitDx=0;exitDy=0;entryX=0.5;entryY=0;entryDx=0;entryDy=0;" edge="1" parent="xRPPK4mGtJRfyNpccHIK-92" source="xRPPK4mGtJRfyNpccHIK-121" target="xRPPK4mGtJRfyNpccHIK-124">
          <mxGeometry relative="1" as="geometry" />
        </mxCell>
        <mxCell id="xRPPK4mGtJRfyNpccHIK-121" value="Melihat status pembayaran" style="rounded=1;" vertex="1" parent="xRPPK4mGtJRfyNpccHIK-92">
          <mxGeometry x="136" y="497.10000000000014" width="150" height="36.9" as="geometry" />
        </mxCell>
        <mxCell id="xRPPK4mGtJRfyNpccHIK-122" style="edgeStyle=orthogonalEdgeStyle;rounded=0;orthogonalLoop=1;jettySize=auto;html=1;exitX=1;exitY=0.5;exitDx=0;exitDy=0;entryX=0.824;entryY=-0.018;entryDx=0;entryDy=0;entryPerimeter=0;" edge="1" parent="xRPPK4mGtJRfyNpccHIK-92" source="xRPPK4mGtJRfyNpccHIK-124" target="xRPPK4mGtJRfyNpccHIK-125">
          <mxGeometry relative="1" as="geometry" />
        </mxCell>
        <mxCell id="xRPPK4mGtJRfyNpccHIK-123" style="edgeStyle=orthogonalEdgeStyle;rounded=0;orthogonalLoop=1;jettySize=auto;html=1;exitX=0;exitY=0.5;exitDx=0;exitDy=0;entryX=0;entryY=0.5;entryDx=0;entryDy=0;" edge="1" parent="xRPPK4mGtJRfyNpccHIK-92" source="xRPPK4mGtJRfyNpccHIK-124" target="xRPPK4mGtJRfyNpccHIK-96">
          <mxGeometry relative="1" as="geometry">
            <Array as="points">
              <mxPoint x="40" y="824" />
              <mxPoint x="40" y="130" />
            </Array>
          </mxGeometry>
        </mxCell>
        <mxCell id="xRPPK4mGtJRfyNpccHIK-124" value="" style="rhombus;fillColor=#dae8fc;strokeColor=#6c8ebf;" vertex="1" parent="xRPPK4mGtJRfyNpccHIK-92">
          <mxGeometry x="183.26999999999998" y="562.1" width="55.46" height="36.9" as="geometry" />
        </mxCell>
        <mxCell id="xRPPK4mGtJRfyNpccHIK-125" value="Masuk ke halaman &#xa;detail pesanan" style="rounded=1;" vertex="1" parent="xRPPK4mGtJRfyNpccHIK-92">
          <mxGeometry x="135" y="748.1" width="150" height="36.9" as="geometry" />
        </mxCell>
        <mxCell id="xRPPK4mGtJRfyNpccHIK-126" value="Pembayaran Ditolak" style="text;html=1;align=center;verticalAlign=middle;resizable=0;points=[];autosize=1;strokeColor=none;fillColor=none;" vertex="1" parent="xRPPK4mGtJRfyNpccHIK-92">
          <mxGeometry x="37" y="816.1" width="130" height="30" as="geometry" />
        </mxCell>
        <mxCell id="xRPPK4mGtJRfyNpccHIK-127" value="Pembayaran Diterima" style="text;html=1;align=center;verticalAlign=middle;resizable=0;points=[];autosize=1;strokeColor=none;fillColor=none;" vertex="1" parent="xRPPK4mGtJRfyNpccHIK-92">
          <mxGeometry x="195" y="617.0999999999998" width="140" height="30" as="geometry" />
        </mxCell>
        <mxCell id="xRPPK4mGtJRfyNpccHIK-128" value="" style="group" connectable="0" vertex="1" parent="xRPPK4mGtJRfyNpccHIK-92">
          <mxGeometry x="186" y="964.0999999999999" width="48" height="48" as="geometry" />
        </mxCell>
        <mxCell id="xRPPK4mGtJRfyNpccHIK-129" value="" style="ellipse;whiteSpace=wrap;html=1;" vertex="1" parent="xRPPK4mGtJRfyNpccHIK-128">
          <mxGeometry width="48" height="48" as="geometry" />
        </mxCell>
        <mxCell id="xRPPK4mGtJRfyNpccHIK-130" value="" style="ellipse;whiteSpace=wrap;html=1;fillColor=#000000;" vertex="1" parent="xRPPK4mGtJRfyNpccHIK-128">
          <mxGeometry x="6.206896551724138" y="6.206896551724138" width="35.58620689655172" height="35.58620689655172" as="geometry" />
        </mxCell>
        <mxCell id="xRPPK4mGtJRfyNpccHIK-131" style="edgeStyle=orthogonalEdgeStyle;rounded=0;orthogonalLoop=1;jettySize=auto;html=1;exitX=1;exitY=0.5;exitDx=0;exitDy=0;entryX=1;entryY=0;entryDx=0;entryDy=0;" edge="1" parent="xRPPK4mGtJRfyNpccHIK-128" source="xRPPK4mGtJRfyNpccHIK-130" target="xRPPK4mGtJRfyNpccHIK-130">
          <mxGeometry relative="1" as="geometry" />
        </mxCell>
        <mxCell id="xRPPK4mGtJRfyNpccHIK-132" value="Kasir" style="swimlane;whiteSpace=wrap" vertex="1" parent="1">
          <mxGeometry x="2440" y="219.9" width="370" height="1040.1" as="geometry" />
        </mxCell>
        <mxCell id="xRPPK4mGtJRfyNpccHIK-133" style="edgeStyle=orthogonalEdgeStyle;rounded=0;orthogonalLoop=1;jettySize=auto;html=1;exitX=0.5;exitY=1;exitDx=0;exitDy=0;entryX=0.5;entryY=0;entryDx=0;entryDy=0;" edge="1" parent="xRPPK4mGtJRfyNpccHIK-132" source="xRPPK4mGtJRfyNpccHIK-134" target="xRPPK4mGtJRfyNpccHIK-136">
          <mxGeometry relative="1" as="geometry" />
        </mxCell>
        <mxCell id="xRPPK4mGtJRfyNpccHIK-134" value="Mengecek data pesanan" style="rounded=1;" vertex="1" parent="xRPPK4mGtJRfyNpccHIK-132">
          <mxGeometry x="110" y="363.1" width="150" height="36.9" as="geometry" />
        </mxCell>
        <mxCell id="xRPPK4mGtJRfyNpccHIK-135" style="edgeStyle=orthogonalEdgeStyle;rounded=0;orthogonalLoop=1;jettySize=auto;html=1;exitX=0.5;exitY=1;exitDx=0;exitDy=0;entryX=0.5;entryY=0;entryDx=0;entryDy=0;" edge="1" parent="xRPPK4mGtJRfyNpccHIK-132" source="xRPPK4mGtJRfyNpccHIK-136" target="xRPPK4mGtJRfyNpccHIK-139">
          <mxGeometry relative="1" as="geometry" />
        </mxCell>
        <mxCell id="xRPPK4mGtJRfyNpccHIK-136" value="Mengecek pembayaran" style="rounded=1;" vertex="1" parent="xRPPK4mGtJRfyNpccHIK-132">
          <mxGeometry x="110" y="431.1" width="150" height="36.9" as="geometry" />
        </mxCell>
        <mxCell id="xRPPK4mGtJRfyNpccHIK-137" style="edgeStyle=orthogonalEdgeStyle;rounded=0;orthogonalLoop=1;jettySize=auto;html=1;exitX=0.897;exitY=0.476;exitDx=0;exitDy=0;entryX=0.559;entryY=0.048;entryDx=0;entryDy=0;entryPerimeter=0;exitPerimeter=0;" edge="1" parent="xRPPK4mGtJRfyNpccHIK-132">
          <mxGeometry relative="1" as="geometry">
            <mxPoint x="206.51761999999962" y="518.6644" as="sourcePoint" />
            <mxPoint x="267.52399999999943" y="608.1112000000002" as="targetPoint" />
          </mxGeometry>
        </mxCell>
        <mxCell id="xRPPK4mGtJRfyNpccHIK-138" style="edgeStyle=orthogonalEdgeStyle;rounded=0;orthogonalLoop=1;jettySize=auto;html=1;exitX=0;exitY=0.5;exitDx=0;exitDy=0;entryX=0.391;entryY=-0.011;entryDx=0;entryDy=0;entryPerimeter=0;" edge="1" parent="xRPPK4mGtJRfyNpccHIK-132" source="xRPPK4mGtJRfyNpccHIK-139" target="xRPPK4mGtJRfyNpccHIK-142">
          <mxGeometry relative="1" as="geometry" />
        </mxCell>
        <mxCell id="xRPPK4mGtJRfyNpccHIK-139" value="" style="rhombus;fillColor=#dae8fc;strokeColor=#6c8ebf;" vertex="1" parent="xRPPK4mGtJRfyNpccHIK-132">
          <mxGeometry x="156.77" y="500.1" width="55.46" height="36.9" as="geometry" />
        </mxCell>
        <mxCell id="xRPPK4mGtJRfyNpccHIK-140" value="" style="whiteSpace=wrap;strokeColor=#000000;fillColor=#000000;direction=east;rotation=-90;" vertex="1" parent="xRPPK4mGtJRfyNpccHIK-132">
          <mxGeometry x="185.14" y="595.44" width="5" height="203.32" as="geometry" />
        </mxCell>
        <mxCell id="xRPPK4mGtJRfyNpccHIK-141" style="edgeStyle=orthogonalEdgeStyle;rounded=0;orthogonalLoop=1;jettySize=auto;html=1;exitX=0.5;exitY=1;exitDx=0;exitDy=0;entryX=0.442;entryY=0.124;entryDx=0;entryDy=0;entryPerimeter=0;" edge="1" parent="xRPPK4mGtJRfyNpccHIK-132" source="xRPPK4mGtJRfyNpccHIK-142" target="xRPPK4mGtJRfyNpccHIK-140">
          <mxGeometry relative="1" as="geometry" />
        </mxCell>
        <mxCell id="xRPPK4mGtJRfyNpccHIK-142" value="Mengubah status pembayaran menjadi diterima" style="whiteSpace=wrap;html=1;rounded=1;" vertex="1" parent="xRPPK4mGtJRfyNpccHIK-132">
          <mxGeometry x="44.5" y="605.1" width="134" height="41.9" as="geometry" />
        </mxCell>
        <mxCell id="xRPPK4mGtJRfyNpccHIK-143" style="edgeStyle=orthogonalEdgeStyle;rounded=0;orthogonalLoop=1;jettySize=auto;html=1;exitX=0.5;exitY=1;exitDx=0;exitDy=0;entryX=0.958;entryY=0.838;entryDx=0;entryDy=0;entryPerimeter=0;" edge="1" parent="xRPPK4mGtJRfyNpccHIK-132" source="xRPPK4mGtJRfyNpccHIK-144" target="xRPPK4mGtJRfyNpccHIK-140">
          <mxGeometry relative="1" as="geometry" />
        </mxCell>
        <mxCell id="xRPPK4mGtJRfyNpccHIK-144" value="Mengubah status pembayaran menjadi ditolak" style="whiteSpace=wrap;html=1;rounded=1;" vertex="1" parent="xRPPK4mGtJRfyNpccHIK-132">
          <mxGeometry x="188.5" y="607.1" width="136" height="41.9" as="geometry" />
        </mxCell>
        <mxCell id="xRPPK4mGtJRfyNpccHIK-145" value="Pembyaran Ditolak" style="text;html=1;align=center;verticalAlign=middle;resizable=0;points=[];autosize=1;strokeColor=none;fillColor=none;" vertex="1" parent="xRPPK4mGtJRfyNpccHIK-132">
          <mxGeometry x="195.5" y="548.0999999999998" width="130" height="30" as="geometry" />
        </mxCell>
        <mxCell id="xRPPK4mGtJRfyNpccHIK-146" value="Pembayaran Diterima" style="text;html=1;align=center;verticalAlign=middle;resizable=0;points=[];autosize=1;strokeColor=none;fillColor=none;" vertex="1" parent="xRPPK4mGtJRfyNpccHIK-132">
          <mxGeometry x="9" y="548.0999999999998" width="140" height="30" as="geometry" />
        </mxCell>
        <mxCell id="xRPPK4mGtJRfyNpccHIK-147" style="edgeStyle=orthogonalEdgeStyle;rounded=0;orthogonalLoop=1;jettySize=auto;html=1;exitX=0.5;exitY=1;exitDx=0;exitDy=0;entryX=0.5;entryY=0;entryDx=0;entryDy=0;" edge="1" parent="xRPPK4mGtJRfyNpccHIK-132" source="xRPPK4mGtJRfyNpccHIK-148" target="xRPPK4mGtJRfyNpccHIK-151">
          <mxGeometry relative="1" as="geometry" />
        </mxCell>
        <mxCell id="xRPPK4mGtJRfyNpccHIK-148" value="Mengubah status pesanan &#xa;(Diproses dan Selesai)" style="rounded=1;" vertex="1" parent="xRPPK4mGtJRfyNpccHIK-132">
          <mxGeometry x="109.5" y="742.1" width="160.5" height="48.9" as="geometry" />
        </mxCell>
        <mxCell id="xRPPK4mGtJRfyNpccHIK-149" style="edgeStyle=orthogonalEdgeStyle;rounded=0;orthogonalLoop=1;jettySize=auto;html=1;exitX=0;exitY=0.5;exitDx=0;exitDy=0;entryX=0.5;entryY=0;entryDx=0;entryDy=0;" edge="1" parent="xRPPK4mGtJRfyNpccHIK-132" source="xRPPK4mGtJRfyNpccHIK-151" target="xRPPK4mGtJRfyNpccHIK-153">
          <mxGeometry relative="1" as="geometry" />
        </mxCell>
        <mxCell id="xRPPK4mGtJRfyNpccHIK-150" style="edgeStyle=orthogonalEdgeStyle;rounded=0;orthogonalLoop=1;jettySize=auto;html=1;exitX=1;exitY=0.5;exitDx=0;exitDy=0;entryX=1.005;entryY=0.392;entryDx=0;entryDy=0;entryPerimeter=0;" edge="1" parent="xRPPK4mGtJRfyNpccHIK-132" source="xRPPK4mGtJRfyNpccHIK-151" target="xRPPK4mGtJRfyNpccHIK-148">
          <mxGeometry relative="1" as="geometry">
            <Array as="points">
              <mxPoint x="320" y="846" />
              <mxPoint x="320" y="761" />
            </Array>
          </mxGeometry>
        </mxCell>
        <mxCell id="xRPPK4mGtJRfyNpccHIK-151" value="" style="rhombus;fillColor=#dae8fc;strokeColor=#6c8ebf;" vertex="1" parent="xRPPK4mGtJRfyNpccHIK-132">
          <mxGeometry x="157.26999999999998" y="827.0999999999999" width="55.46" height="36.9" as="geometry" />
        </mxCell>
        <mxCell id="xRPPK4mGtJRfyNpccHIK-152" style="edgeStyle=orthogonalEdgeStyle;rounded=0;orthogonalLoop=1;jettySize=auto;html=1;exitX=0.5;exitY=1;exitDx=0;exitDy=0;entryX=0.5;entryY=0;entryDx=0;entryDy=0;" edge="1" parent="xRPPK4mGtJRfyNpccHIK-132" source="xRPPK4mGtJRfyNpccHIK-153" target="xRPPK4mGtJRfyNpccHIK-155">
          <mxGeometry relative="1" as="geometry" />
        </mxCell>
        <mxCell id="xRPPK4mGtJRfyNpccHIK-153" value="Mengubah status pesanan menjadi &quot;Selesai&quot;" style="whiteSpace=wrap;html=1;rounded=1;" vertex="1" parent="xRPPK4mGtJRfyNpccHIK-132">
          <mxGeometry x="39.64" y="895.0999999999999" width="145.5" height="41.9" as="geometry" />
        </mxCell>
        <mxCell id="xRPPK4mGtJRfyNpccHIK-154" value="&lt;font style=&quot;font-size: 11px;&quot;&gt;Selesai&lt;/font&gt;" style="text;html=1;align=center;verticalAlign=middle;resizable=0;points=[];autosize=1;strokeColor=none;fillColor=none;" vertex="1" parent="xRPPK4mGtJRfyNpccHIK-132">
          <mxGeometry x="56.499999999999986" y="847.0999999999997" width="60" height="30" as="geometry" />
        </mxCell>
        <mxCell id="xRPPK4mGtJRfyNpccHIK-155" value="Menyimpan data transaksi" style="whiteSpace=wrap;html=1;rounded=1;" vertex="1" parent="xRPPK4mGtJRfyNpccHIK-132">
          <mxGeometry x="39.63999999999987" y="967.0999999999999" width="145.5" height="41.9" as="geometry" />
        </mxCell>
        <mxCell id="xRPPK4mGtJRfyNpccHIK-156" value="&lt;font style=&quot;font-size: 11px;&quot;&gt;Diproses&lt;/font&gt;" style="text;html=1;align=center;verticalAlign=middle;resizable=0;points=[];autosize=1;strokeColor=none;fillColor=none;" vertex="1" parent="xRPPK4mGtJRfyNpccHIK-132">
          <mxGeometry x="243" y="844.0999999999998" width="70" height="30" as="geometry" />
        </mxCell>
        <mxCell id="xRPPK4mGtJRfyNpccHIK-157" style="edgeStyle=orthogonalEdgeStyle;rounded=0;orthogonalLoop=1;jettySize=auto;html=1;exitX=0;exitY=0.75;exitDx=0;exitDy=0;entryX=0;entryY=0.5;entryDx=0;entryDy=0;" edge="1" parent="1" source="xRPPK4mGtJRfyNpccHIK-119" target="xRPPK4mGtJRfyNpccHIK-134">
          <mxGeometry relative="1" as="geometry" />
        </mxCell>
        <mxCell id="xRPPK4mGtJRfyNpccHIK-158" style="edgeStyle=orthogonalEdgeStyle;rounded=0;orthogonalLoop=1;jettySize=auto;html=1;exitX=0;exitY=0.25;exitDx=0;exitDy=0;entryX=0;entryY=0.5;entryDx=0;entryDy=0;" edge="1" parent="1" source="xRPPK4mGtJRfyNpccHIK-119" target="xRPPK4mGtJRfyNpccHIK-136">
          <mxGeometry relative="1" as="geometry" />
        </mxCell>
        <mxCell id="xRPPK4mGtJRfyNpccHIK-159" style="edgeStyle=orthogonalEdgeStyle;rounded=0;orthogonalLoop=1;jettySize=auto;html=1;exitX=0;exitY=0.5;exitDx=0;exitDy=0;entryX=1;entryY=0.5;entryDx=0;entryDy=0;" edge="1" parent="1" source="xRPPK4mGtJRfyNpccHIK-140" target="xRPPK4mGtJRfyNpccHIK-121">
          <mxGeometry relative="1" as="geometry" />
        </mxCell>
        <mxCell id="xRPPK4mGtJRfyNpccHIK-160" style="edgeStyle=orthogonalEdgeStyle;rounded=0;orthogonalLoop=1;jettySize=auto;html=1;exitX=1;exitY=0.5;exitDx=0;exitDy=0;entryX=0;entryY=0.5;entryDx=0;entryDy=0;" edge="1" parent="1" source="xRPPK4mGtJRfyNpccHIK-125" target="xRPPK4mGtJRfyNpccHIK-148">
          <mxGeometry relative="1" as="geometry" />
        </mxCell>
        <mxCell id="xRPPK4mGtJRfyNpccHIK-161" style="edgeStyle=orthogonalEdgeStyle;rounded=0;orthogonalLoop=1;jettySize=auto;html=1;exitX=0;exitY=0.5;exitDx=0;exitDy=0;entryX=1;entryY=0.5;entryDx=0;entryDy=0;" edge="1" parent="1" source="xRPPK4mGtJRfyNpccHIK-155" target="xRPPK4mGtJRfyNpccHIK-129">
          <mxGeometry relative="1" as="geometry" />
        </mxCell>
        <mxCell id="xRPPK4mGtJRfyNpccHIK-162" value="PENGGUNA&amp;nbsp;" style="text;html=1;strokeColor=none;fillColor=none;align=center;verticalAlign=middle;whiteSpace=wrap;rounded=0;" vertex="1" parent="1">
          <mxGeometry x="2260" y="150" width="280" height="30" as="geometry" />
        </mxCell>
        <mxCell id="xRPPK4mGtJRfyNpccHIK-163" value="Sistem" style="swimlane;whiteSpace=wrap;html=1;startSize=23;" vertex="1" parent="1">
          <mxGeometry x="1300" y="1001.1" width="318" height="808.9" as="geometry" />
        </mxCell>
        <mxCell id="xRPPK4mGtJRfyNpccHIK-164" style="edgeStyle=orthogonalEdgeStyle;rounded=0;orthogonalLoop=1;jettySize=auto;html=1;exitX=0.5;exitY=1;exitDx=0;exitDy=0;entryX=0.5;entryY=0;entryDx=0;entryDy=0;" edge="1" parent="xRPPK4mGtJRfyNpccHIK-163" source="xRPPK4mGtJRfyNpccHIK-165">
          <mxGeometry relative="1" as="geometry">
            <mxPoint x="157.8900000000001" y="230.00000000000023" as="targetPoint" />
          </mxGeometry>
        </mxCell>
        <mxCell id="xRPPK4mGtJRfyNpccHIK-165" value="&lt;font style=&quot;font-size: 11px;&quot;&gt;Validasi&amp;nbsp;&lt;br&gt;Login&lt;/font&gt;" style="rhombus;whiteSpace=wrap;html=1;fillColor=#dae8fc;strokeColor=#6c8ebf;" vertex="1" parent="xRPPK4mGtJRfyNpccHIK-163">
          <mxGeometry x="120.33" y="96.00000000000003" width="75.12" height="45" as="geometry" />
        </mxCell>
        <mxCell id="xRPPK4mGtJRfyNpccHIK-166" value="Menampilkan halaman dashboard kasir" style="rounded=1;whiteSpace=wrap;html=1;" vertex="1" parent="xRPPK4mGtJRfyNpccHIK-163">
          <mxGeometry x="34.78" y="229" width="226.22" height="34" as="geometry" />
        </mxCell>
        <mxCell id="xRPPK4mGtJRfyNpccHIK-167" value="Tidak valid" style="text;html=1;align=center;verticalAlign=middle;resizable=0;points=[];autosize=1;strokeColor=none;fillColor=none;" vertex="1" parent="xRPPK4mGtJRfyNpccHIK-163">
          <mxGeometry x="5" y="153" width="80" height="30" as="geometry" />
        </mxCell>
        <mxCell id="xRPPK4mGtJRfyNpccHIK-168" value="Menampilkan halaman kelola data" style="rounded=1;whiteSpace=wrap;html=1;" vertex="1" parent="xRPPK4mGtJRfyNpccHIK-163">
          <mxGeometry x="47.22" y="290" width="223.78" height="31" as="geometry" />
        </mxCell>
        <mxCell id="xRPPK4mGtJRfyNpccHIK-169" style="edgeStyle=orthogonalEdgeStyle;rounded=0;orthogonalLoop=1;jettySize=auto;html=1;exitX=0.5;exitY=1;exitDx=0;exitDy=0;entryX=0.5;entryY=0;entryDx=0;entryDy=0;" edge="1" parent="xRPPK4mGtJRfyNpccHIK-163">
          <mxGeometry relative="1" as="geometry">
            <mxPoint x="159.00000000000023" y="321" as="sourcePoint" />
            <mxPoint x="159.00000000000023" y="351" as="targetPoint" />
          </mxGeometry>
        </mxCell>
        <mxCell id="xRPPK4mGtJRfyNpccHIK-171" value="Menampilkan list data" style="rounded=1;whiteSpace=wrap;html=1;" vertex="1" parent="xRPPK4mGtJRfyNpccHIK-163">
          <mxGeometry x="48.110000000000014" y="352" width="223.78" height="31" as="geometry" />
        </mxCell>
        <mxCell id="xRPPK4mGtJRfyNpccHIK-172" style="edgeStyle=orthogonalEdgeStyle;rounded=0;orthogonalLoop=1;jettySize=auto;html=1;exitX=0.5;exitY=1;exitDx=0;exitDy=0;entryX=0.5;entryY=0;entryDx=0;entryDy=0;" edge="1" parent="xRPPK4mGtJRfyNpccHIK-163">
          <mxGeometry relative="1" as="geometry">
            <mxPoint x="159.00000000000023" y="436" as="sourcePoint" />
            <mxPoint x="159.00000000000023" y="463" as="targetPoint" />
          </mxGeometry>
        </mxCell>
        <mxCell id="xRPPK4mGtJRfyNpccHIK-173" value="Menyimpan perubahan data yang dipilih" style="rounded=1;whiteSpace=wrap;html=1;" vertex="1" parent="xRPPK4mGtJRfyNpccHIK-163">
          <mxGeometry x="48.110000000000014" y="407" width="223.78" height="31" as="geometry" />
        </mxCell>
        <mxCell id="xRPPK4mGtJRfyNpccHIK-174" value="Menampilkan list data" style="rounded=1;whiteSpace=wrap;html=1;" vertex="1" parent="xRPPK4mGtJRfyNpccHIK-163">
          <mxGeometry x="48.110000000000014" y="464" width="223.78" height="31" as="geometry" />
        </mxCell>
        <mxCell id="xRPPK4mGtJRfyNpccHIK-175" style="edgeStyle=orthogonalEdgeStyle;rounded=0;orthogonalLoop=1;jettySize=auto;html=1;exitX=0.5;exitY=1;exitDx=0;exitDy=0;entryX=0.5;entryY=0;entryDx=0;entryDy=0;" edge="1" parent="xRPPK4mGtJRfyNpccHIK-163">
          <mxGeometry relative="1" as="geometry">
            <mxPoint x="160" y="549.9999999999999" as="sourcePoint" />
            <mxPoint x="158.88999999999987" y="578.9999999999999" as="targetPoint" />
          </mxGeometry>
        </mxCell>
        <mxCell id="xRPPK4mGtJRfyNpccHIK-176" value="Menghapus data terpilih" style="rounded=1;whiteSpace=wrap;html=1;" vertex="1" parent="xRPPK4mGtJRfyNpccHIK-163">
          <mxGeometry x="48.110000000000014" y="520" width="223.78" height="31" as="geometry" />
        </mxCell>
        <mxCell id="xRPPK4mGtJRfyNpccHIK-177" value="Menampilkan list data" style="rounded=1;whiteSpace=wrap;html=1;" vertex="1" parent="xRPPK4mGtJRfyNpccHIK-163">
          <mxGeometry x="47" y="580" width="223.78" height="31" as="geometry" />
        </mxCell>
        <mxCell id="xRPPK4mGtJRfyNpccHIK-178" value="" style="line;strokeWidth=6;html=1;perimeter=backbonePerimeter;points=[];outlineConnect=0;" vertex="1" parent="xRPPK4mGtJRfyNpccHIK-163">
          <mxGeometry x="125.94" y="639" width="67.89" height="40" as="geometry" />
        </mxCell>
        <mxCell id="xRPPK4mGtJRfyNpccHIK-179" style="edgeStyle=orthogonalEdgeStyle;rounded=0;orthogonalLoop=1;jettySize=auto;html=1;exitX=0.5;exitY=1;exitDx=0;exitDy=0;entryX=0.5;entryY=0;entryDx=0;entryDy=0;" edge="1" parent="xRPPK4mGtJRfyNpccHIK-163" source="xRPPK4mGtJRfyNpccHIK-180" target="xRPPK4mGtJRfyNpccHIK-181">
          <mxGeometry relative="1" as="geometry" />
        </mxCell>
        <mxCell id="xRPPK4mGtJRfyNpccHIK-180" value="Logout" style="rounded=1;whiteSpace=wrap;html=1;" vertex="1" parent="xRPPK4mGtJRfyNpccHIK-163">
          <mxGeometry x="115.67000000000007" y="699" width="84.44" height="24.69" as="geometry" />
        </mxCell>
        <mxCell id="xRPPK4mGtJRfyNpccHIK-181" value="" style="ellipse;html=1;shape=endState;fillColor=#000000;strokeColor=#000000;" vertex="1" parent="xRPPK4mGtJRfyNpccHIK-163">
          <mxGeometry x="142.89" y="760" width="30" height="30" as="geometry" />
        </mxCell>
        <mxCell id="xRPPK4mGtJRfyNpccHIK-182" value="Kasir" style="swimlane;whiteSpace=wrap;html=1;startSize=23;" vertex="1" parent="1">
          <mxGeometry x="1000" y="1001" width="300" height="809" as="geometry" />
        </mxCell>
        <mxCell id="xRPPK4mGtJRfyNpccHIK-183" style="edgeStyle=orthogonalEdgeStyle;rounded=0;orthogonalLoop=1;jettySize=auto;html=1;exitX=1;exitY=0.5;exitDx=0;exitDy=0;" edge="1" parent="xRPPK4mGtJRfyNpccHIK-182" source="xRPPK4mGtJRfyNpccHIK-184">
          <mxGeometry relative="1" as="geometry">
            <mxPoint x="420" y="119.10000000000002" as="targetPoint" />
          </mxGeometry>
        </mxCell>
        <mxCell id="xRPPK4mGtJRfyNpccHIK-184" value="Login" style="rounded=1;whiteSpace=wrap;html=1;" vertex="1" parent="xRPPK4mGtJRfyNpccHIK-182">
          <mxGeometry x="105.56" y="106.31" width="84.44" height="24.69" as="geometry" />
        </mxCell>
        <mxCell id="xRPPK4mGtJRfyNpccHIK-185" value="&lt;span style=&quot;font-size: 11px;&quot;&gt;Pilih &lt;br&gt;menu&lt;/span&gt;" style="rhombus;whiteSpace=wrap;html=1;fillColor=#dae8fc;strokeColor=#6c8ebf;" vertex="1" parent="xRPPK4mGtJRfyNpccHIK-182">
          <mxGeometry x="116.22" y="225.10000000000002" width="67.56" height="40.9" as="geometry" />
        </mxCell>
        <mxCell id="xRPPK4mGtJRfyNpccHIK-187" value="Mengubah data&amp;nbsp;" style="rounded=1;whiteSpace=wrap;html=1;" vertex="1" parent="xRPPK4mGtJRfyNpccHIK-182">
          <mxGeometry x="61.55" y="353.1" width="176.89" height="30.9" as="geometry" />
        </mxCell>
        <mxCell id="xRPPK4mGtJRfyNpccHIK-188" value="Menghapus data&amp;nbsp;" style="rounded=1;whiteSpace=wrap;html=1;" vertex="1" parent="xRPPK4mGtJRfyNpccHIK-182">
          <mxGeometry x="59.33" y="465.1" width="176.89" height="30.9" as="geometry" />
        </mxCell>
        <mxCell id="xRPPK4mGtJRfyNpccHIK-189" value="Ya" style="text;html=1;align=center;verticalAlign=middle;resizable=0;points=[];autosize=1;strokeColor=none;fillColor=none;" vertex="1" parent="xRPPK4mGtJRfyNpccHIK-182">
          <mxGeometry x="203.89" y="279.1" width="40" height="30" as="geometry" />
        </mxCell>
        <mxCell id="xRPPK4mGtJRfyNpccHIK-190" value="Tidak" style="text;html=1;align=center;verticalAlign=middle;resizable=0;points=[];autosize=1;strokeColor=none;fillColor=none;" vertex="1" parent="xRPPK4mGtJRfyNpccHIK-182">
          <mxGeometry x="54.329999999999984" y="244.10000000000002" width="50" height="30" as="geometry" />
        </mxCell>
        <mxCell id="xRPPK4mGtJRfyNpccHIK-191" value="" style="edgeStyle=orthogonalEdgeStyle;rounded=0;orthogonalLoop=1;jettySize=auto;html=1;exitX=0.437;exitY=0.815;exitDx=0;exitDy=0;exitPerimeter=0;" edge="1" parent="xRPPK4mGtJRfyNpccHIK-182" source="xRPPK4mGtJRfyNpccHIK-192" target="xRPPK4mGtJRfyNpccHIK-184">
          <mxGeometry relative="1" as="geometry">
            <Array as="points">
              <mxPoint x="148" y="74" />
            </Array>
          </mxGeometry>
        </mxCell>
        <mxCell id="xRPPK4mGtJRfyNpccHIK-192" value="" style="ellipse;html=1;shape=startState;fillColor=#000000;strokeColor=none;" vertex="1" parent="xRPPK4mGtJRfyNpccHIK-182">
          <mxGeometry x="132.77999999999997" y="49.10000000000025" width="30" height="30" as="geometry" />
        </mxCell>
        <mxCell id="xRPPK4mGtJRfyNpccHIK-193" style="edgeStyle=orthogonalEdgeStyle;rounded=0;orthogonalLoop=1;jettySize=auto;html=1;entryX=0.5;entryY=1;entryDx=0;entryDy=0;" edge="1" parent="1" target="xRPPK4mGtJRfyNpccHIK-184">
          <mxGeometry relative="1" as="geometry">
            <mxPoint x="1460" y="1180.1" as="sourcePoint" />
            <mxPoint x="1150" y="1151" as="targetPoint" />
          </mxGeometry>
        </mxCell>
        <mxCell id="xRPPK4mGtJRfyNpccHIK-194" value="Valid" style="text;html=1;align=center;verticalAlign=middle;resizable=0;points=[];autosize=1;strokeColor=none;fillColor=none;" vertex="1" parent="1">
          <mxGeometry x="1452" y="1189.1" width="50" height="30" as="geometry" />
        </mxCell>
        <mxCell id="xRPPK4mGtJRfyNpccHIK-195" style="edgeStyle=orthogonalEdgeStyle;rounded=0;orthogonalLoop=1;jettySize=auto;html=1;exitX=0;exitY=0.5;exitDx=0;exitDy=0;entryX=1;entryY=0.5;entryDx=0;entryDy=0;" edge="1" parent="1" source="xRPPK4mGtJRfyNpccHIK-166" target="xRPPK4mGtJRfyNpccHIK-185">
          <mxGeometry relative="1" as="geometry" />
        </mxCell>
        <mxCell id="xRPPK4mGtJRfyNpccHIK-196" style="edgeStyle=orthogonalEdgeStyle;rounded=0;orthogonalLoop=1;jettySize=auto;html=1;exitX=0.5;exitY=1;exitDx=0;exitDy=0;entryX=0;entryY=0.5;entryDx=0;entryDy=0;" edge="1" parent="1" source="xRPPK4mGtJRfyNpccHIK-185" target="xRPPK4mGtJRfyNpccHIK-168">
          <mxGeometry relative="1" as="geometry" />
        </mxCell>
        <mxCell id="xRPPK4mGtJRfyNpccHIK-198" style="edgeStyle=orthogonalEdgeStyle;rounded=0;orthogonalLoop=1;jettySize=auto;html=1;exitX=0.5;exitY=1;exitDx=0;exitDy=0;entryX=0;entryY=0.5;entryDx=0;entryDy=0;" edge="1" parent="1" source="xRPPK4mGtJRfyNpccHIK-187" target="xRPPK4mGtJRfyNpccHIK-173">
          <mxGeometry relative="1" as="geometry" />
        </mxCell>
        <mxCell id="xRPPK4mGtJRfyNpccHIK-199" style="edgeStyle=orthogonalEdgeStyle;rounded=0;orthogonalLoop=1;jettySize=auto;html=1;exitX=0;exitY=0.5;exitDx=0;exitDy=0;entryX=1;entryY=0.5;entryDx=0;entryDy=0;" edge="1" parent="1" source="xRPPK4mGtJRfyNpccHIK-174" target="xRPPK4mGtJRfyNpccHIK-188">
          <mxGeometry relative="1" as="geometry" />
        </mxCell>
        <mxCell id="xRPPK4mGtJRfyNpccHIK-201" style="edgeStyle=orthogonalEdgeStyle;rounded=0;orthogonalLoop=1;jettySize=auto;html=1;exitX=0.5;exitY=1;exitDx=0;exitDy=0;entryX=0;entryY=0.5;entryDx=0;entryDy=0;" edge="1" parent="1" source="xRPPK4mGtJRfyNpccHIK-188" target="xRPPK4mGtJRfyNpccHIK-176">
          <mxGeometry relative="1" as="geometry" />
        </mxCell>
        <mxCell id="xRPPK4mGtJRfyNpccHIK-202" style="edgeStyle=orthogonalEdgeStyle;rounded=0;orthogonalLoop=1;jettySize=auto;html=1;exitX=0.5;exitY=1;exitDx=0;exitDy=0;" edge="1" parent="1">
          <mxGeometry relative="1" as="geometry">
            <mxPoint x="1460.0000000000002" y="1663.1" as="sourcePoint" />
            <mxPoint x="1459.9" y="1700.1" as="targetPoint" />
          </mxGeometry>
        </mxCell>
        <mxCell id="xRPPK4mGtJRfyNpccHIK-203" style="edgeStyle=orthogonalEdgeStyle;rounded=0;orthogonalLoop=1;jettySize=auto;html=1;exitX=0;exitY=0.5;exitDx=0;exitDy=0;" edge="1" parent="1" source="xRPPK4mGtJRfyNpccHIK-185" target="xRPPK4mGtJRfyNpccHIK-178">
          <mxGeometry relative="1" as="geometry">
            <mxPoint x="1111.22" y="1251.55" as="sourcePoint" />
            <mxPoint x="1428" y="1805.1" as="targetPoint" />
            <Array as="points">
              <mxPoint x="1040" y="1247" />
              <mxPoint x="1040" y="1630" />
              <mxPoint x="1440" y="1630" />
            </Array>
          </mxGeometry>
        </mxCell>
        <mxCell id="xRPPK4mGtJRfyNpccHIK-204" style="edgeStyle=orthogonalEdgeStyle;rounded=0;orthogonalLoop=1;jettySize=auto;html=1;exitX=0;exitY=0.5;exitDx=0;exitDy=0;entryX=1;entryY=0.5;entryDx=0;entryDy=0;" edge="1" parent="1" source="xRPPK4mGtJRfyNpccHIK-171" target="xRPPK4mGtJRfyNpccHIK-187">
          <mxGeometry relative="1" as="geometry" />
        </mxCell>
      </root>
    </mxGraphModel>
  </diagram>
</mxfile>
